<svg xmlns="http://www.w3.org/2000/svg" viewBox="0 0 1200 660" width="1200" height="660">
<defs>
  <radialGradient id="rg_orig" cx="50%" cy="50%" r="50%"><stop offset="0%" stop-color="#d4a85a"/><stop offset="100%" stop-color="#d4a85a" stop-opacity="0"/></radialGradient>
  <radialGradient id="rg_s14" cx="50%" cy="50%" r="50%"><stop offset="0%" stop-color="#c45aad"/><stop offset="100%" stop-color="#c45aad" stop-opacity="0"/></radialGradient>
  <radialGradient id="rg_pi" cx="50%" cy="50%" r="50%"><stop offset="0%" stop-color="#5a9fd4" stop-opacity="0.9"/><stop offset="100%" stop-color="#5a9fd4" stop-opacity="0"/></radialGradient>
  <filter id="glow3"><feGaussianBlur stdDeviation="3" result="b"/><feMerge><feMergeNode in="b"/><feMergeNode in="SourceGraphic"/></feMerge></filter>
  <filter id="glow6"><feGaussianBlur stdDeviation="6" result="b"/><feMerge><feMergeNode in="b"/><feMergeNode in="SourceGraphic"/></feMerge></filter>
  <filter id="glow10"><feGaussianBlur stdDeviation="10" result="b"/><feMerge><feMergeNode in="b"/><feMergeNode in="SourceGraphic"/></feMerge></filter>
</defs>
<rect width="1200" height="660" fill="#06090f"/>
<g opacity="0.5">
<path d="M 381.8,276.0 L 378.6,277.8 L 375.5,279.6 L 372.4,281.4 L 369.3,283.2 L 366.2,285.0 L 363.1,286.8 L 359.9,288.6 L 356.8,290.4 L 353.7,292.2 L 350.6,294.0 L 347.5,295.8 L 344.3,297.6 L 341.2,299.4 L 338.1,301.2 L 335.0,303.0 L 331.9,304.8 L 328.8,306.6 L 325.6,308.4 L 322.5,310.2 L 319.4,312.0 L 316.3,313.8 L 313.2,315.6 L 310.1,317.4 L 306.9,319.2 L 303.8,321.0 L 300.7,322.8 L 297.6,324.6 L 294.5,326.4 L 291.3,328.2 L 288.2,330.0 L 285.1,331.8 L 282.0,333.6 L 278.9,335.4 L 275.8,337.2 L 272.6,339.0 L 269.5,340.8 L 266.4,342.6 L 263.3,344.4 L 260.2,346.2 L 257.1,348.0 L 253.9,349.8 L 250.8,351.6 L 247.7,353.4 L 244.6,355.2 L 241.5,357.0 L 238.3,358.8 L 235.2,360.6 L 232.1,362.4 L 229.0,364.2 L 225.9,366.0 L 222.8,367.8 L 219.6,369.6 L 216.5,371.4 L 213.4,373.2 L 210.3,375.0 L 207.2,376.8 L 204.1,378.6 L 200.9,380.4 L 197.8,382.2 L 194.7,384.0 L 191.6,385.8 L 188.5,387.6 L 185.3,389.4 L 182.2,391.2 L 179.1,393.0 L 176.0,394.8 L 172.9,396.7 L 169.8,398.5 L 166.6,400.3 L 163.5,402.1 L 160.4,403.9 L 157.3,405.7 L 154.2,407.5 L 151.1,409.3 L 147.9,411.1 L 144.8,412.9 L 141.7,414.7 L 138.6,416.6 L 135.5,418.4 L 132.3,420.2 L 129.2,422.0 L 126.1,423.8 L 123.0,425.6 L 119.9,427.5 L 116.8,429.3 L 113.6,431.1 L 110.5,432.9 L 107.4,434.7 L 104.3,436.6 L 101.2,438.4 L 98.1,440.2 L 94.9,442.1 L 91.8,443.9 L 88.7,445.7 L 85.6,447.5 L 82.5,449.4 L 79.3,451.2 L 76.2,453.1 L 73.1,454.9 L 70.0,456.7 L 66.9,458.6 L 63.8,460.4 L 60.6,462.3 L 57.5,464.1 L 54.4,466.0 L 51.3,467.8 L 48.2,469.7 L 45.1,471.5 L 41.9,473.4 L 38.8,475.2 L 35.7,477.1 L 32.6,478.9 L 29.5,480.8 L 26.3,482.6 L 23.2,484.5 L 20.1,486.3 L 17.0,488.2 L 13.9,490.0 L 10.8,491.9 L 7.6,493.7 L 4.5,495.6 L 1.4,497.4 L -1.7,499.2 L -4.8,501.1 L -7.9,502.9 L -11.1,504.8 L -14.2,506.6 L -17.3,508.4 L -20.4,510.3 L -23.5,512.1 L -26.7,513.9 L -29.8,515.8 L -32.9,517.6 L -36.0,519.4 L -39.1,521.2 L -42.2,523.0 L -45.4,524.8 L -48.5,526.7 L -51.6,528.5 L -54.7,530.3 L -57.8,532.1 L -61.0,533.9 L -64.1,535.6 L -67.2,537.4" fill="none" stroke="#1a3060" stroke-width="0.4" opacity="0.6" />
<path d="M 425.4,301.2 L 422.3,303.0 L 419.2,304.8 L 416.1,306.6 L 412.9,308.4 L 409.8,310.2 L 406.7,312.0 L 403.6,313.8 L 400.5,315.6 L 397.4,317.4 L 394.2,319.2 L 391.1,321.0 L 388.0,322.8 L 384.9,324.6 L 381.8,326.4 L 378.6,328.2 L 375.5,330.0 L 372.4,331.8 L 369.3,333.6 L 366.2,335.4 L 363.1,337.2 L 359.9,339.0 L 356.8,340.8 L 353.7,342.6 L 350.6,344.4 L 347.5,346.2 L 344.3,348.0 L 341.2,349.8 L 338.1,351.6 L 335.0,353.4 L 331.9,355.2 L 328.8,357.0 L 325.6,358.8 L 322.5,360.6 L 319.4,362.4 L 316.3,364.2 L 313.2,366.0 L 310.1,367.8 L 306.9,369.6 L 303.8,371.4 L 300.7,373.2 L 297.6,375.0 L 294.5,376.8 L 291.3,378.6 L 288.2,380.4 L 285.1,382.2 L 282.0,384.0 L 278.9,385.8 L 275.8,387.6 L 272.6,389.4 L 269.5,391.2 L 266.4,393.0 L 263.3,394.8 L 260.2,396.6 L 257.1,398.4 L 253.9,400.2 L 250.8,402.1 L 247.7,403.9 L 244.6,405.7 L 241.5,407.5 L 238.3,409.3 L 235.2,411.1 L 232.1,412.9 L 229.0,414.7 L 225.9,416.5 L 222.8,418.3 L 219.6,420.2 L 216.5,422.0 L 213.4,423.8 L 210.3,425.6 L 207.2,427.4 L 204.1,429.3 L 200.9,431.1 L 197.8,432.9 L 194.7,434.7 L 191.6,436.6 L 188.5,438.4 L 185.3,440.3 L 182.2,442.1 L 179.1,443.9 L 176.0,445.8 L 172.9,447.6 L 169.8,449.5 L 166.6,451.3 L 163.5,453.2 L 160.4,455.1 L 157.3,456.9 L 154.2,458.8 L 151.1,460.7 L 147.9,462.6 L 144.8,464.5 L 141.7,466.4 L 138.6,468.2 L 135.5,470.1 L 132.3,472.1 L 129.2,474.0 L 126.1,475.9 L 123.0,477.8 L 119.9,479.7 L 116.8,481.6 L 113.6,483.6 L 110.5,485.5 L 107.4,487.4 L 104.3,489.4 L 101.2,491.3 L 98.1,493.3 L 94.9,495.2 L 91.8,497.2 L 88.7,499.1 L 85.6,501.1 L 82.5,503.1 L 79.3,505.0 L 76.2,507.0 L 73.1,509.0 L 70.0,510.9 L 66.9,512.9 L 63.8,514.9 L 60.6,516.8 L 57.5,518.8 L 54.4,520.7 L 51.3,522.7 L 48.2,524.6 L 45.1,526.6 L 41.9,528.5 L 38.8,530.5 L 35.7,532.4 L 32.6,534.3 L 29.5,536.3 L 26.3,538.2 L 23.2,540.1 L 20.1,542.0 L 17.0,543.9 L 13.9,545.7 L 10.8,547.6 L 7.6,549.5 L 4.5,551.3 L 1.4,553.2 L -1.7,555.0 L -4.8,556.8 L -7.9,558.7 L -11.1,560.5 L -14.2,562.3 L -17.3,564.0 L -20.4,565.8 L -23.5,567.6" fill="none" stroke="#1a3060" stroke-width="0.4" opacity="0.6" />
<path d="M 469.1,326.4 L 465.9,328.2 L 462.8,330.0 L 459.7,331.8 L 456.6,333.6 L 453.5,335.4 L 450.4,337.2 L 447.2,339.0 L 444.1,340.8 L 441.0,342.6 L 437.9,344.4 L 434.8,346.2 L 431.6,348.0 L 428.5,349.8 L 425.4,351.6 L 422.3,353.4 L 419.2,355.2 L 416.1,357.0 L 412.9,358.8 L 409.8,360.6 L 406.7,362.4 L 403.6,364.2 L 400.5,366.0 L 397.4,367.8 L 394.2,369.6 L 391.1,371.4 L 388.0,373.2 L 384.9,375.0 L 381.8,376.8 L 378.6,378.6 L 375.5,380.4 L 372.4,382.2 L 369.3,384.0 L 366.2,385.8 L 363.1,387.6 L 359.9,389.4 L 356.8,391.2 L 353.7,393.0 L 350.6,394.8 L 347.5,396.6 L 344.3,398.4 L 341.2,400.2 L 338.1,402.0 L 335.0,403.8 L 331.9,405.6 L 328.8,407.4 L 325.6,409.2 L 322.5,411.0 L 319.4,412.8 L 316.3,414.7 L 313.2,416.5 L 310.1,418.3 L 306.9,420.1 L 303.8,421.9 L 300.7,423.7 L 297.6,425.5 L 294.5,427.3 L 291.3,429.1 L 288.2,431.0 L 285.1,432.8 L 282.0,434.6 L 278.9,436.4 L 275.8,438.3 L 272.6,440.1 L 269.5,441.9 L 266.4,443.7 L 263.3,445.6 L 260.2,447.4 L 257.1,449.3 L 253.9,451.1 L 250.8,453.0 L 247.7,454.8 L 244.6,456.7 L 241.5,458.6 L 238.3,460.4 L 235.2,462.3 L 232.1,464.2 L 229.0,466.1 L 225.9,468.0 L 222.8,469.9 L 219.6,471.8 L 216.5,473.8 L 213.4,475.7 L 210.3,477.6 L 207.2,479.6 L 204.1,481.5 L 200.9,483.5 L 197.8,485.5 L 194.7,487.5 L 191.6,489.5 L 188.5,491.5 L 185.3,493.5 L 182.2,495.5 L 179.1,497.6 L 176.0,499.6 L 172.9,501.7 L 169.8,503.8 L 166.6,505.9 L 163.5,508.0 L 160.4,510.1 L 157.3,512.2 L 154.2,514.3 L 151.1,516.5 L 147.9,518.6 L 144.8,520.8 L 141.7,522.9 L 138.6,525.1 L 135.5,527.3 L 132.3,529.5 L 129.2,531.7 L 126.1,533.9 L 123.0,536.1 L 119.9,538.3 L 116.8,540.5 L 113.6,542.7 L 110.5,544.9 L 107.4,547.1 L 104.3,549.3 L 101.2,551.5 L 98.1,553.6 L 94.9,555.8 L 91.8,558.0 L 88.7,560.2 L 85.6,562.3 L 82.5,564.4 L 79.3,566.6 L 76.2,568.7 L 73.1,570.8 L 70.0,572.9 L 66.9,574.9 L 63.8,577.0 L 60.6,579.0 L 57.5,581.0 L 54.4,583.0 L 51.3,584.9 L 48.2,586.8 L 45.1,588.8 L 41.9,590.6 L 38.8,592.5 L 35.7,594.3 L 32.6,596.2 L 29.5,597.9 L 26.3,599.7 L 23.2,601.4 L 20.1,603.2" fill="none" stroke="#1a3060" stroke-width="0.4" opacity="0.6" />
<path d="M 512.7,351.6 L 509.6,353.4 L 506.5,355.2 L 503.4,357.0 L 500.2,358.8 L 497.1,360.6 L 494.0,362.4 L 490.9,364.2 L 487.8,366.0 L 484.6,367.8 L 481.5,369.6 L 478.4,371.4 L 475.3,373.2 L 472.2,375.0 L 469.1,376.8 L 465.9,378.6 L 462.8,380.4 L 459.7,382.2 L 456.6,384.0 L 453.5,385.8 L 450.4,387.6 L 447.2,389.4 L 444.1,391.2 L 441.0,393.0 L 437.9,394.8 L 434.8,396.6 L 431.6,398.4 L 428.5,400.2 L 425.4,402.0 L 422.3,403.8 L 419.2,405.6 L 416.1,407.4 L 412.9,409.2 L 409.8,411.0 L 406.7,412.8 L 403.6,414.6 L 400.5,416.4 L 397.4,418.2 L 394.2,420.0 L 391.1,421.8 L 388.0,423.6 L 384.9,425.4 L 381.8,427.2 L 378.6,429.0 L 375.5,430.9 L 372.4,432.7 L 369.3,434.5 L 366.2,436.3 L 363.1,438.1 L 359.9,439.9 L 356.8,441.7 L 353.7,443.5 L 350.6,445.3 L 347.5,447.2 L 344.3,449.0 L 341.2,450.8 L 338.1,452.6 L 335.0,454.5 L 331.9,456.3 L 328.8,458.1 L 325.6,460.0 L 322.5,461.8 L 319.4,463.7 L 316.3,465.5 L 313.2,467.4 L 310.1,469.2 L 306.9,471.1 L 303.8,473.0 L 300.7,474.9 L 297.6,476.8 L 294.5,478.7 L 291.3,480.6 L 288.2,482.5 L 285.1,484.4 L 282.0,486.4 L 278.9,488.3 L 275.8,490.3 L 272.6,492.2 L 269.5,494.2 L 266.4,496.2 L 263.3,498.3 L 260.2,500.3 L 257.1,502.3 L 253.9,504.4 L 250.8,506.5 L 247.7,508.6 L 244.6,510.7 L 241.5,512.8 L 238.3,515.0 L 235.2,517.1 L 232.1,519.3 L 229.0,521.5 L 225.9,523.8 L 222.8,526.0 L 219.6,528.3 L 216.5,530.6 L 213.4,532.9 L 210.3,535.2 L 207.2,537.6 L 204.1,540.0 L 200.9,542.4 L 197.8,544.8 L 194.7,547.2 L 191.6,549.7 L 188.5,552.1 L 185.3,554.6 L 182.2,557.1 L 179.1,559.6 L 176.0,562.1 L 172.9,564.6 L 169.8,567.2 L 166.6,569.7 L 163.5,572.3 L 160.4,574.8 L 157.3,577.4 L 154.2,579.9 L 151.1,582.4 L 147.9,585.0 L 144.8,587.5 L 141.7,590.0 L 138.6,592.5 L 135.5,595.0 L 132.3,597.5 L 129.2,599.9 L 126.1,602.4 L 123.0,604.8 L 119.9,607.2 L 116.8,609.5 L 113.6,611.8 L 110.5,614.1 L 107.4,616.4 L 104.3,618.6 L 101.2,620.7 L 98.1,622.9 L 94.9,625.0 L 91.8,627.0 L 88.7,629.0 L 85.6,631.0 L 82.5,632.9 L 79.3,634.8 L 76.2,636.6 L 73.1,638.4 L 70.0,640.1 L 66.9,641.8 L 63.8,643.4" fill="none" stroke="#1a3060" stroke-width="0.4" opacity="0.6" />
<path d="M 556.4,376.8 L 553.2,378.6 L 550.1,380.4 L 547.0,382.2 L 543.9,384.0 L 540.8,385.8 L 537.6,387.6 L 534.5,389.4 L 531.4,391.2 L 528.3,393.0 L 525.2,394.8 L 522.1,396.6 L 518.9,398.4 L 515.8,400.2 L 512.7,402.0 L 509.6,403.8 L 506.5,405.6 L 503.4,407.4 L 500.2,409.2 L 497.1,411.0 L 494.0,412.8 L 490.9,414.6 L 487.8,416.4 L 484.6,418.2 L 481.5,420.0 L 478.4,421.8 L 475.3,423.6 L 472.2,425.4 L 469.1,427.2 L 465.9,429.0 L 462.8,430.8 L 459.7,432.6 L 456.6,434.4 L 453.5,436.2 L 450.4,438.0 L 447.2,439.8 L 444.1,441.6 L 441.0,443.4 L 437.9,445.2 L 434.8,447.0 L 431.6,448.8 L 428.5,450.6 L 425.4,452.5 L 422.3,454.3 L 419.2,456.1 L 416.1,457.9 L 412.9,459.7 L 409.8,461.5 L 406.7,463.3 L 403.6,465.1 L 400.5,467.0 L 397.4,468.8 L 394.2,470.6 L 391.1,472.4 L 388.0,474.3 L 384.9,476.1 L 381.8,477.9 L 378.6,479.8 L 375.5,481.6 L 372.4,483.5 L 369.3,485.3 L 366.2,487.2 L 363.1,489.1 L 359.9,490.9 L 356.8,492.8 L 353.7,494.7 L 350.6,496.6 L 347.5,498.5 L 344.3,500.4 L 341.2,502.4 L 338.1,504.3 L 335.0,506.3 L 331.9,508.2 L 328.8,510.2 L 325.6,512.2 L 322.5,514.2 L 319.4,516.2 L 316.3,518.3 L 313.2,520.4 L 310.1,522.4 L 306.9,524.5 L 303.8,526.7 L 300.7,528.8 L 297.6,531.0 L 294.5,533.2 L 291.3,535.4 L 288.2,537.6 L 285.1,539.9 L 282.0,542.2 L 278.9,544.5 L 275.8,546.9 L 272.6,549.3 L 269.5,551.7 L 266.4,554.1 L 263.3,556.6 L 260.2,559.1 L 257.1,561.6 L 253.9,564.2 L 250.8,566.8 L 247.7,569.4 L 244.6,572.0 L 241.5,574.7 L 238.3,577.4 L 235.2,580.1 L 232.1,582.8 L 229.0,585.6 L 225.9,588.3 L 222.8,591.1 L 219.6,593.9 L 216.5,596.8 L 213.4,599.6 L 210.3,602.5 L 207.2,605.3 L 204.1,608.2 L 200.9,611.0 L 197.8,613.9 L 194.7,616.7 L 191.6,619.6 L 188.5,622.4 L 185.3,625.2 L 182.2,628.0 L 179.1,630.8 L 176.0,633.5 L 172.9,636.3 L 169.8,638.9 L 166.6,641.6 L 163.5,644.2 L 160.4,646.8 L 157.3,649.3 L 154.2,651.8 L 151.1,654.2 L 147.9,656.6 L 144.8,658.9 L 141.7,661.2 L 138.6,663.4 L 135.5,665.6 L 132.3,667.7 L 129.2,669.7 L 126.1,671.7 L 123.0,673.6 L 119.9,675.4 L 116.8,677.2 L 113.6,678.9 L 110.5,680.5 L 107.4,682.1" fill="none" stroke="#1a3060" stroke-width="0.4" opacity="0.6" />
<path d="M 600.0,402.0 L 596.9,403.8 L 593.8,405.6 L 590.6,407.4 L 587.5,409.2 L 584.4,411.0 L 581.3,412.8 L 578.2,414.6 L 575.1,416.4 L 571.9,418.2 L 568.8,420.0 L 565.7,421.8 L 562.6,423.6 L 559.5,425.4 L 556.4,427.2 L 553.2,429.0 L 550.1,430.8 L 547.0,432.6 L 543.9,434.4 L 540.8,436.2 L 537.6,438.0 L 534.5,439.8 L 531.4,441.6 L 528.3,443.4 L 525.2,445.2 L 522.1,447.0 L 518.9,448.8 L 515.8,450.6 L 512.7,452.4 L 509.6,454.2 L 506.5,456.0 L 503.4,457.8 L 500.2,459.6 L 497.1,461.4 L 494.0,463.2 L 490.9,465.0 L 487.8,466.8 L 484.6,468.6 L 481.5,470.4 L 478.4,472.2 L 475.3,474.0 L 472.2,475.9 L 469.1,477.7 L 465.9,479.5 L 462.8,481.3 L 459.7,483.1 L 456.6,484.9 L 453.5,486.7 L 450.4,488.5 L 447.2,490.4 L 444.1,492.2 L 441.0,494.0 L 437.9,495.8 L 434.8,497.6 L 431.6,499.5 L 428.5,501.3 L 425.4,503.2 L 422.3,505.0 L 419.2,506.9 L 416.1,508.7 L 412.9,510.6 L 409.8,512.4 L 406.7,514.3 L 403.6,516.2 L 400.5,518.1 L 397.4,520.0 L 394.2,521.9 L 391.1,523.8 L 388.0,525.7 L 384.9,527.7 L 381.8,529.6 L 378.6,531.6 L 375.5,533.6 L 372.4,535.6 L 369.3,537.6 L 366.2,539.6 L 363.1,541.6 L 359.9,543.7 L 356.8,545.8 L 353.7,547.9 L 350.6,550.0 L 347.5,552.2 L 344.3,554.3 L 341.2,556.5 L 338.1,558.8 L 335.0,561.0 L 331.9,563.3 L 328.8,565.6 L 325.6,567.9 L 322.5,570.3 L 319.4,572.7 L 316.3,575.1 L 313.2,577.6 L 310.1,580.1 L 306.9,582.6 L 303.8,585.1 L 300.7,587.7 L 297.6,590.3 L 294.5,592.9 L 291.3,595.6 L 288.2,598.3 L 285.1,601.0 L 282.0,603.8 L 278.9,606.6 L 275.8,609.4 L 272.6,612.2 L 269.5,615.1 L 266.4,617.9 L 263.3,620.8 L 260.2,623.7 L 257.1,626.6 L 253.9,629.5 L 250.8,632.5 L 247.7,635.4 L 244.6,638.3 L 241.5,641.3 L 238.3,644.2 L 235.2,647.1 L 232.1,650.0 L 229.0,652.9 L 225.9,655.8 L 222.8,658.6 L 219.6,661.5 L 216.5,664.2 L 213.4,667.0 L 210.3,669.7 L 207.2,672.4 L 204.1,675.0 L 200.9,677.6 L 197.8,680.1 L 194.7,682.6 L 191.6,685.0 L 188.5,687.4 L 185.3,689.7 L 182.2,692.0 L 179.1,694.1 L 176.0,696.2 L 172.9,698.3 L 169.8,700.3 L 166.6,702.2 L 163.5,704.0 L 160.4,705.8 L 157.3,707.5 L 154.2,709.1 L 151.1,710.6" fill="none" stroke="#1a3060" stroke-width="0.4" opacity="0.6" />
<path d="M 643.6,427.2 L 640.5,429.0 L 637.4,430.8 L 634.3,432.6 L 631.2,434.4 L 628.1,436.2 L 624.9,438.0 L 621.8,439.8 L 618.7,441.6 L 615.6,443.4 L 612.5,445.2 L 609.4,447.0 L 606.2,448.8 L 603.1,450.6 L 600.0,452.4 L 596.9,454.2 L 593.8,456.0 L 590.6,457.8 L 587.5,459.6 L 584.4,461.4 L 581.3,463.2 L 578.2,465.0 L 575.1,466.8 L 571.9,468.6 L 568.8,470.4 L 565.7,472.2 L 562.6,474.0 L 559.5,475.8 L 556.4,477.6 L 553.2,479.4 L 550.1,481.2 L 547.0,483.0 L 543.9,484.8 L 540.8,486.6 L 537.6,488.4 L 534.5,490.2 L 531.4,492.0 L 528.3,493.8 L 525.2,495.6 L 522.1,497.4 L 518.9,499.2 L 515.8,501.0 L 512.7,502.8 L 509.6,504.7 L 506.5,506.5 L 503.4,508.3 L 500.2,510.1 L 497.1,511.9 L 494.0,513.7 L 490.9,515.5 L 487.8,517.3 L 484.6,519.2 L 481.5,521.0 L 478.4,522.8 L 475.3,524.6 L 472.2,526.5 L 469.1,528.3 L 465.9,530.1 L 462.8,532.0 L 459.7,533.8 L 456.6,535.7 L 453.5,537.5 L 450.4,539.4 L 447.2,541.2 L 444.1,543.1 L 441.0,545.0 L 437.9,546.9 L 434.8,548.8 L 431.6,550.7 L 428.5,552.6 L 425.4,554.5 L 422.3,556.5 L 419.2,558.4 L 416.1,560.4 L 412.9,562.3 L 409.8,564.3 L 406.7,566.3 L 403.6,568.3 L 400.5,570.4 L 397.4,572.4 L 394.2,574.5 L 391.1,576.6 L 388.0,578.7 L 384.9,580.8 L 381.8,582.9 L 378.6,585.1 L 375.5,587.3 L 372.4,589.5 L 369.3,591.7 L 366.2,594.0 L 363.1,596.3 L 359.9,598.6 L 356.8,600.9 L 353.7,603.3 L 350.6,605.7 L 347.5,608.1 L 344.3,610.5 L 341.2,613.0 L 338.1,615.5 L 335.0,618.0 L 331.9,620.5 L 328.8,623.1 L 325.6,625.6 L 322.5,628.2 L 319.4,630.9 L 316.3,633.5 L 313.2,636.2 L 310.1,638.8 L 306.9,641.5 L 303.8,644.2 L 300.7,646.9 L 297.6,649.6 L 294.5,652.4 L 291.3,655.1 L 288.2,657.8 L 285.1,660.5 L 282.0,663.2 L 278.9,666.0 L 275.8,668.7 L 272.6,671.4 L 269.5,674.0 L 266.4,676.7 L 263.3,679.3 L 260.2,681.9 L 257.1,684.5 L 253.9,687.0 L 250.8,689.6 L 247.7,692.0 L 244.6,694.5 L 241.5,696.9 L 238.3,699.2 L 235.2,701.5 L 232.1,703.8 L 229.0,706.0 L 225.9,708.2 L 222.8,710.3 L 219.6,712.3 L 216.5,714.3 L 213.4,716.3 L 210.3,718.2 L 207.2,720.0 L 204.1,721.8 L 200.9,723.5 L 197.8,725.1 L 194.7,726.7" fill="none" stroke="#1a3060" stroke-width="0.4" opacity="0.6" />
<path d="M 687.3,452.4 L 684.2,454.2 L 681.1,456.0 L 677.9,457.8 L 674.8,459.6 L 671.7,461.4 L 668.6,463.2 L 665.5,465.0 L 662.4,466.8 L 659.2,468.6 L 656.1,470.4 L 653.0,472.2 L 649.9,474.0 L 646.8,475.8 L 643.6,477.6 L 640.5,479.4 L 637.4,481.2 L 634.3,483.0 L 631.2,484.8 L 628.1,486.6 L 624.9,488.4 L 621.8,490.2 L 618.7,492.0 L 615.6,493.8 L 612.5,495.6 L 609.4,497.4 L 606.2,499.2 L 603.1,501.0 L 600.0,502.8 L 596.9,504.6 L 593.8,506.4 L 590.6,508.2 L 587.5,510.0 L 584.4,511.8 L 581.3,513.6 L 578.2,515.4 L 575.1,517.2 L 571.9,519.0 L 568.8,520.8 L 565.7,522.6 L 562.6,524.4 L 559.5,526.2 L 556.4,528.0 L 553.2,529.8 L 550.1,531.6 L 547.0,533.4 L 543.9,535.3 L 540.8,537.1 L 537.6,538.9 L 534.5,540.7 L 531.4,542.5 L 528.3,544.3 L 525.2,546.1 L 522.1,547.9 L 518.9,549.7 L 515.8,551.6 L 512.7,553.4 L 509.6,555.2 L 506.5,557.0 L 503.4,558.9 L 500.2,560.7 L 497.1,562.5 L 494.0,564.4 L 490.9,566.2 L 487.8,568.0 L 484.6,569.9 L 481.5,571.7 L 478.4,573.6 L 475.3,575.5 L 472.2,577.3 L 469.1,579.2 L 465.9,581.1 L 462.8,583.0 L 459.7,584.9 L 456.6,586.8 L 453.5,588.7 L 450.4,590.6 L 447.2,592.6 L 444.1,594.5 L 441.0,596.5 L 437.9,598.4 L 434.8,600.4 L 431.6,602.4 L 428.5,604.4 L 425.4,606.4 L 422.3,608.4 L 419.2,610.5 L 416.1,612.5 L 412.9,614.6 L 409.8,616.7 L 406.7,618.8 L 403.6,620.9 L 400.5,623.0 L 397.4,625.2 L 394.2,627.3 L 391.1,629.5 L 388.0,631.7 L 384.9,633.9 L 381.8,636.2 L 378.6,638.4 L 375.5,640.6 L 372.4,642.9 L 369.3,645.2 L 366.2,647.5 L 363.1,649.8 L 359.9,652.1 L 356.8,654.5 L 353.7,656.8 L 350.6,659.1 L 347.5,661.5 L 344.3,663.9 L 341.2,666.2 L 338.1,668.6 L 335.0,671.0 L 331.9,673.4 L 328.8,675.7 L 325.6,678.1 L 322.5,680.5 L 319.4,682.8 L 316.3,685.2 L 313.2,687.5 L 310.1,689.8 L 306.9,692.2 L 303.8,694.5 L 300.7,696.7 L 297.6,699.0 L 294.5,701.2 L 291.3,703.5 L 288.2,705.7 L 285.1,707.8 L 282.0,710.0 L 278.9,712.1 L 275.8,714.2 L 272.6,716.2 L 269.5,718.3 L 266.4,720.2 L 263.3,722.2 L 260.2,724.1 L 257.1,726.0 L 253.9,727.9 L 250.8,729.7 L 247.7,731.5 L 244.6,733.2 L 241.5,734.9 L 238.3,736.6" fill="none" stroke="#1a3060" stroke-width="0.4" opacity="0.6" />
<path d="M 730.9,477.6 L 727.8,479.4 L 724.7,481.2 L 721.6,483.0 L 718.5,484.8 L 715.4,486.6 L 712.2,488.4 L 709.1,490.2 L 706.0,492.0 L 702.9,493.8 L 699.8,495.6 L 696.6,497.4 L 693.5,499.2 L 690.4,501.0 L 687.3,502.8 L 684.2,504.6 L 681.1,506.4 L 677.9,508.2 L 674.8,510.0 L 671.7,511.8 L 668.6,513.6 L 665.5,515.4 L 662.4,517.2 L 659.2,519.0 L 656.1,520.8 L 653.0,522.6 L 649.9,524.4 L 646.8,526.2 L 643.6,528.0 L 640.5,529.8 L 637.4,531.6 L 634.3,533.4 L 631.2,535.2 L 628.1,537.0 L 624.9,538.8 L 621.8,540.6 L 618.7,542.4 L 615.6,544.2 L 612.5,546.0 L 609.4,547.8 L 606.2,549.6 L 603.1,551.4 L 600.0,553.2 L 596.9,555.0 L 593.8,556.8 L 590.6,558.6 L 587.5,560.4 L 584.4,562.2 L 581.3,564.0 L 578.2,565.8 L 575.1,567.6 L 571.9,569.4 L 568.8,571.3 L 565.7,573.1 L 562.6,574.9 L 559.5,576.7 L 556.4,578.5 L 553.2,580.3 L 550.1,582.1 L 547.0,583.9 L 543.9,585.7 L 540.8,587.6 L 537.6,589.4 L 534.5,591.2 L 531.4,593.0 L 528.3,594.8 L 525.2,596.7 L 522.1,598.5 L 518.9,600.3 L 515.8,602.1 L 512.7,604.0 L 509.6,605.8 L 506.5,607.7 L 503.4,609.5 L 500.2,611.4 L 497.1,613.2 L 494.0,615.1 L 490.9,616.9 L 487.8,618.8 L 484.6,620.7 L 481.5,622.6 L 478.4,624.4 L 475.3,626.3 L 472.2,628.2 L 469.1,630.1 L 465.9,632.0 L 462.8,633.9 L 459.7,635.9 L 456.6,637.8 L 453.5,639.7 L 450.4,641.7 L 447.2,643.6 L 444.1,645.6 L 441.0,647.5 L 437.9,649.5 L 434.8,651.5 L 431.6,653.5 L 428.5,655.5 L 425.4,657.5 L 422.3,659.5 L 419.2,661.5 L 416.1,663.5 L 412.9,665.5 L 409.8,667.6 L 406.7,669.6 L 403.6,671.7 L 400.5,673.7 L 397.4,675.8 L 394.2,677.8 L 391.1,679.9 L 388.0,681.9 L 384.9,684.0 L 381.8,686.1 L 378.6,688.2 L 375.5,690.2 L 372.4,692.3 L 369.3,694.4 L 366.2,696.4 L 363.1,698.5 L 359.9,700.5 L 356.8,702.6 L 353.7,704.7 L 350.6,706.7 L 347.5,708.7 L 344.3,710.8 L 341.2,712.8 L 338.1,714.8 L 335.0,716.8 L 331.9,718.8 L 328.8,720.7 L 325.6,722.7 L 322.5,724.7 L 319.4,726.6 L 316.3,728.5 L 313.2,730.4 L 310.1,732.3 L 306.9,734.2 L 303.8,736.0 L 300.7,737.9 L 297.6,739.7 L 294.5,741.5 L 291.3,743.3 L 288.2,745.1 L 285.1,746.8 L 282.0,748.6" fill="none" stroke="#1a3060" stroke-width="0.4" opacity="0.6" />
<path d="M 774.6,502.8 L 771.5,504.6 L 768.4,506.4 L 765.2,508.2 L 762.1,510.0 L 759.0,511.8 L 755.9,513.6 L 752.8,515.4 L 749.6,517.2 L 746.5,519.0 L 743.4,520.8 L 740.3,522.6 L 737.2,524.4 L 734.1,526.2 L 730.9,528.0 L 727.8,529.8 L 724.7,531.6 L 721.6,533.4 L 718.5,535.2 L 715.4,537.0 L 712.2,538.8 L 709.1,540.6 L 706.0,542.4 L 702.9,544.2 L 699.8,546.0 L 696.6,547.8 L 693.5,549.6 L 690.4,551.4 L 687.3,553.2 L 684.2,555.0 L 681.1,556.8 L 677.9,558.6 L 674.8,560.4 L 671.7,562.2 L 668.6,564.0 L 665.5,565.8 L 662.4,567.6 L 659.2,569.4 L 656.1,571.2 L 653.0,573.0 L 649.9,574.8 L 646.8,576.6 L 643.6,578.4 L 640.5,580.2 L 637.4,582.0 L 634.3,583.8 L 631.2,585.6 L 628.1,587.4 L 624.9,589.2 L 621.8,591.0 L 618.7,592.8 L 615.6,594.6 L 612.5,596.4 L 609.4,598.2 L 606.2,600.0 L 603.1,601.8 L 600.0,603.6 L 596.9,605.4 L 593.8,607.2 L 590.6,609.0 L 587.5,610.8 L 584.4,612.7 L 581.3,614.5 L 578.2,616.3 L 575.1,618.1 L 571.9,619.9 L 568.8,621.7 L 565.7,623.5 L 562.6,625.3 L 559.5,627.1 L 556.4,628.9 L 553.2,630.8 L 550.1,632.6 L 547.0,634.4 L 543.9,636.2 L 540.8,638.0 L 537.6,639.8 L 534.5,641.7 L 531.4,643.5 L 528.3,645.3 L 525.2,647.1 L 522.1,649.0 L 518.9,650.8 L 515.8,652.6 L 512.7,654.5 L 509.6,656.3 L 506.5,658.2 L 503.4,660.0 L 500.2,661.8 L 497.1,663.7 L 494.0,665.5 L 490.9,667.4 L 487.8,669.3 L 484.6,671.1 L 481.5,673.0 L 478.4,674.8 L 475.3,676.7 L 472.2,678.6 L 469.1,680.4 L 465.9,682.3 L 462.8,684.2 L 459.7,686.1 L 456.6,688.0 L 453.5,689.8 L 450.4,691.7 L 447.2,693.6 L 444.1,695.5 L 441.0,697.4 L 437.9,699.3 L 434.8,701.2 L 431.6,703.1 L 428.5,705.0 L 425.4,706.9 L 422.3,708.8 L 419.2,710.7 L 416.1,712.6 L 412.9,714.5 L 409.8,716.3 L 406.7,718.2 L 403.6,720.1 L 400.5,722.0 L 397.4,723.9 L 394.2,725.8 L 391.1,727.7 L 388.0,729.6 L 384.9,731.4 L 381.8,733.3 L 378.6,735.2 L 375.5,737.1 L 372.4,738.9 L 369.3,740.8 L 366.2,742.6 L 363.1,744.5 L 359.9,746.3 L 356.8,748.2 L 353.7,750.0 L 350.6,751.8 L 347.5,753.6 L 344.3,755.5 L 341.2,757.3 L 338.1,759.1 L 335.0,760.9 L 331.9,762.7 L 328.8,764.4 L 325.6,766.2" fill="none" stroke="#1a3060" stroke-width="0.4" opacity="0.6" />
<path d="M 818.2,528.0 L 815.1,529.8 L 812.0,531.6 L 808.9,533.4 L 805.8,535.2 L 802.6,537.0 L 799.5,538.8 L 796.4,540.6 L 793.3,542.4 L 790.2,544.2 L 787.1,546.0 L 783.9,547.8 L 780.8,549.6 L 777.7,551.4 L 774.6,553.2 L 771.5,555.0 L 768.4,556.8 L 765.2,558.6 L 762.1,560.4 L 759.0,562.2 L 755.9,564.0 L 752.8,565.8 L 749.6,567.6 L 746.5,569.4 L 743.4,571.2 L 740.3,573.0 L 737.2,574.8 L 734.1,576.6 L 730.9,578.4 L 727.8,580.2 L 724.7,582.0 L 721.6,583.8 L 718.5,585.6 L 715.4,587.4 L 712.2,589.2 L 709.1,591.0 L 706.0,592.8 L 702.9,594.6 L 699.8,596.4 L 696.6,598.2 L 693.5,600.0 L 690.4,601.8 L 687.3,603.6 L 684.2,605.4 L 681.1,607.2 L 677.9,609.0 L 674.8,610.8 L 671.7,612.6 L 668.6,614.4 L 665.5,616.2 L 662.4,618.0 L 659.2,619.8 L 656.1,621.6 L 653.0,623.4 L 649.9,625.2 L 646.8,627.0 L 643.6,628.8 L 640.5,630.6 L 637.4,632.4 L 634.3,634.2 L 631.2,636.0 L 628.1,637.8 L 624.9,639.6 L 621.8,641.4 L 618.7,643.2 L 615.6,645.0 L 612.5,646.8 L 609.4,648.6 L 606.2,650.4 L 603.1,652.2 L 600.0,654.0 L 596.9,655.8 L 593.8,657.6 L 590.6,659.5 L 587.5,661.3 L 584.4,663.1 L 581.3,664.9 L 578.2,666.7 L 575.1,668.5 L 571.9,670.3 L 568.8,672.1 L 565.7,673.9 L 562.6,675.7 L 559.5,677.5 L 556.4,679.3 L 553.2,681.1 L 550.1,683.0 L 547.0,684.8 L 543.9,686.6 L 540.8,688.4 L 537.6,690.2 L 534.5,692.0 L 531.4,693.8 L 528.3,695.6 L 525.2,697.5 L 522.1,699.3 L 518.9,701.1 L 515.8,702.9 L 512.7,704.7 L 509.6,706.6 L 506.5,708.4 L 503.4,710.2 L 500.2,712.0 L 497.1,713.8 L 494.0,715.7 L 490.9,717.5 L 487.8,719.3 L 484.6,721.1 L 481.5,723.0 L 478.4,724.8 L 475.3,726.6 L 472.2,728.4 L 469.1,730.3 L 465.9,732.1 L 462.8,733.9 L 459.7,735.7 L 456.6,737.6 L 453.5,739.4 L 450.4,741.2 L 447.2,743.1 L 444.1,744.9 L 441.0,746.7 L 437.9,748.5 L 434.8,750.3 L 431.6,752.2 L 428.5,754.0 L 425.4,755.8 L 422.3,757.6 L 419.2,759.4 L 416.1,761.3 L 412.9,763.1 L 409.8,764.9 L 406.7,766.7 L 403.6,768.5 L 400.5,770.3 L 397.4,772.1 L 394.2,773.9 L 391.1,775.8 L 388.0,777.6 L 384.9,779.4 L 381.8,781.2 L 378.6,783.0 L 375.5,784.8 L 372.4,786.6 L 369.3,788.3" fill="none" stroke="#1a3060" stroke-width="0.4" opacity="0.6" />
<path d="M 381.8,276.0 L 386.1,278.5 L 390.5,281.0 L 394.9,283.6 L 399.2,286.1 L 403.6,288.6 L 408.0,291.1 L 412.3,293.6 L 416.7,296.2 L 421.0,298.7 L 425.4,301.2 L 429.8,303.7 L 434.1,306.2 L 438.5,308.8 L 442.9,311.3 L 447.2,313.8 L 451.6,316.3 L 456.0,318.8 L 460.3,321.4 L 464.7,323.9 L 469.1,326.4 L 473.4,328.9 L 477.8,331.4 L 482.2,334.0 L 486.5,336.5 L 490.9,339.0 L 495.2,341.5 L 499.6,344.0 L 504.0,346.6 L 508.3,349.1 L 512.7,351.6 L 517.1,354.1 L 521.4,356.6 L 525.8,359.2 L 530.2,361.7 L 534.5,364.2 L 538.9,366.7 L 543.3,369.2 L 547.6,371.8 L 552.0,374.3 L 556.4,376.8 L 560.7,379.3 L 565.1,381.8 L 569.4,384.4 L 573.8,386.9 L 578.2,389.4 L 582.5,391.9 L 586.9,394.4 L 591.3,397.0 L 595.6,399.5 L 600.0,402.0 L 604.4,404.5 L 608.7,407.0 L 613.1,409.6 L 617.5,412.1 L 621.8,414.6 L 626.2,417.1 L 630.6,419.6 L 634.9,422.2 L 639.3,424.7 L 643.6,427.2 L 648.0,429.7 L 652.4,432.2 L 656.7,434.8 L 661.1,437.3 L 665.5,439.8 L 669.8,442.3 L 674.2,444.8 L 678.6,447.4 L 682.9,449.9 L 687.3,452.4 L 691.7,454.9 L 696.0,457.4 L 700.4,460.0 L 704.8,462.5 L 709.1,465.0 L 713.5,467.5 L 717.8,470.0 L 722.2,472.6 L 726.6,475.1 L 730.9,477.6 L 735.3,480.1 L 739.7,482.6 L 744.0,485.2 L 748.4,487.7 L 752.8,490.2 L 757.1,492.7 L 761.5,495.2 L 765.9,497.8 L 770.2,500.3 L 774.6,502.8 L 779.0,505.3 L 783.3,507.8 L 787.7,510.4 L 792.0,512.9 L 796.4,515.4 L 800.8,517.9 L 805.1,520.4 L 809.5,523.0 L 813.9,525.5 L 818.2,528.0" fill="none" stroke="#1a3060" stroke-width="0.4" opacity="0.6" />
<path d="M 338.1,301.2 L 342.5,303.7 L 346.8,306.2 L 351.2,308.8 L 355.6,311.3 L 359.9,313.8 L 364.3,316.3 L 368.7,318.8 L 373.0,321.4 L 377.4,323.9 L 381.8,326.4 L 386.1,328.9 L 390.5,331.4 L 394.9,334.0 L 399.2,336.5 L 403.6,339.0 L 408.0,341.5 L 412.3,344.0 L 416.7,346.6 L 421.0,349.1 L 425.4,351.6 L 429.8,354.1 L 434.1,356.6 L 438.5,359.2 L 442.9,361.7 L 447.2,364.2 L 451.6,366.7 L 456.0,369.2 L 460.3,371.8 L 464.7,374.3 L 469.1,376.8 L 473.4,379.3 L 477.8,381.8 L 482.2,384.4 L 486.5,386.9 L 490.9,389.4 L 495.2,391.9 L 499.6,394.4 L 504.0,397.0 L 508.3,399.5 L 512.7,402.0 L 517.1,404.5 L 521.4,407.0 L 525.8,409.6 L 530.2,412.1 L 534.5,414.6 L 538.9,417.1 L 543.3,419.6 L 547.6,422.2 L 552.0,424.7 L 556.4,427.2 L 560.7,429.7 L 565.1,432.2 L 569.4,434.8 L 573.8,437.3 L 578.2,439.8 L 582.5,442.3 L 586.9,444.8 L 591.3,447.4 L 595.6,449.9 L 600.0,452.4 L 604.4,454.9 L 608.7,457.4 L 613.1,460.0 L 617.5,462.5 L 621.8,465.0 L 626.2,467.5 L 630.6,470.0 L 634.9,472.6 L 639.3,475.1 L 643.6,477.6 L 648.0,480.1 L 652.4,482.6 L 656.7,485.2 L 661.1,487.7 L 665.5,490.2 L 669.8,492.7 L 674.2,495.2 L 678.6,497.8 L 682.9,500.3 L 687.3,502.8 L 691.7,505.3 L 696.0,507.8 L 700.4,510.4 L 704.8,512.9 L 709.1,515.4 L 713.5,517.9 L 717.8,520.4 L 722.2,523.0 L 726.6,525.5 L 730.9,528.0 L 735.3,530.5 L 739.7,533.0 L 744.0,535.6 L 748.4,538.1 L 752.8,540.6 L 757.1,543.1 L 761.5,545.6 L 765.9,548.2 L 770.2,550.7 L 774.6,553.2" fill="none" stroke="#1a3060" stroke-width="0.4" opacity="0.6" />
<path d="M 294.5,326.4 L 298.8,328.9 L 303.2,331.4 L 307.6,334.0 L 311.9,336.5 L 316.3,339.0 L 320.7,341.5 L 325.0,344.0 L 329.4,346.6 L 333.7,349.1 L 338.1,351.6 L 342.5,354.1 L 346.8,356.6 L 351.2,359.2 L 355.6,361.7 L 359.9,364.2 L 364.3,366.7 L 368.7,369.2 L 373.0,371.8 L 377.4,374.3 L 381.8,376.8 L 386.1,379.3 L 390.5,381.8 L 394.9,384.4 L 399.2,386.9 L 403.6,389.4 L 408.0,391.9 L 412.3,394.4 L 416.7,397.0 L 421.0,399.5 L 425.4,402.0 L 429.8,404.5 L 434.1,407.0 L 438.5,409.6 L 442.9,412.1 L 447.2,414.6 L 451.6,417.1 L 456.0,419.6 L 460.3,422.2 L 464.7,424.7 L 469.1,427.2 L 473.4,429.7 L 477.8,432.2 L 482.2,434.8 L 486.5,437.3 L 490.9,439.8 L 495.2,442.3 L 499.6,444.8 L 504.0,447.4 L 508.3,449.9 L 512.7,452.4 L 517.1,454.9 L 521.4,457.4 L 525.8,460.0 L 530.2,462.5 L 534.5,465.0 L 538.9,467.5 L 543.3,470.0 L 547.6,472.6 L 552.0,475.1 L 556.4,477.6 L 560.7,480.1 L 565.1,482.6 L 569.4,485.2 L 573.8,487.7 L 578.2,490.2 L 582.5,492.7 L 586.9,495.2 L 591.3,497.8 L 595.6,500.3 L 600.0,502.8 L 604.4,505.3 L 608.7,507.8 L 613.1,510.4 L 617.5,512.9 L 621.8,515.4 L 626.2,517.9 L 630.6,520.4 L 634.9,523.0 L 639.3,525.5 L 643.6,528.0 L 648.0,530.5 L 652.4,533.0 L 656.7,535.6 L 661.1,538.1 L 665.5,540.6 L 669.8,543.1 L 674.2,545.6 L 678.6,548.2 L 682.9,550.7 L 687.3,553.2 L 691.7,555.7 L 696.0,558.2 L 700.4,560.8 L 704.8,563.3 L 709.1,565.8 L 713.5,568.3 L 717.8,570.8 L 722.2,573.4 L 726.6,575.9 L 730.9,578.4" fill="none" stroke="#1a3060" stroke-width="0.4" opacity="0.6" />
<path d="M 250.8,351.6 L 255.2,354.1 L 259.5,356.6 L 263.9,359.2 L 268.3,361.7 L 272.6,364.2 L 277.0,366.7 L 281.4,369.2 L 285.7,371.8 L 290.1,374.3 L 294.5,376.8 L 298.8,379.3 L 303.2,381.9 L 307.6,384.4 L 311.9,386.9 L 316.3,389.4 L 320.7,391.9 L 325.0,394.5 L 329.4,397.0 L 333.7,399.5 L 338.1,402.0 L 342.5,404.5 L 346.8,407.1 L 351.2,409.6 L 355.6,412.1 L 359.9,414.6 L 364.3,417.2 L 368.7,419.7 L 373.0,422.2 L 377.4,424.7 L 381.8,427.2 L 386.1,429.8 L 390.5,432.3 L 394.9,434.8 L 399.2,437.3 L 403.6,439.8 L 408.0,442.4 L 412.3,444.9 L 416.7,447.4 L 421.0,449.9 L 425.4,452.5 L 429.8,455.0 L 434.1,457.5 L 438.5,460.0 L 442.9,462.5 L 447.2,465.1 L 451.6,467.6 L 456.0,470.1 L 460.3,472.6 L 464.7,475.1 L 469.1,477.7 L 473.4,480.2 L 477.8,482.7 L 482.2,485.2 L 486.5,487.7 L 490.9,490.3 L 495.2,492.8 L 499.6,495.3 L 504.0,497.8 L 508.3,500.3 L 512.7,502.8 L 517.1,505.4 L 521.4,507.9 L 525.8,510.4 L 530.2,512.9 L 534.5,515.4 L 538.9,518.0 L 543.3,520.5 L 547.6,523.0 L 552.0,525.5 L 556.4,528.0 L 560.7,530.5 L 565.1,533.1 L 569.4,535.6 L 573.8,538.1 L 578.2,540.6 L 582.5,543.1 L 586.9,545.7 L 591.3,548.2 L 595.6,550.7 L 600.0,553.2 L 604.4,555.7 L 608.7,558.3 L 613.1,560.8 L 617.5,563.3 L 621.8,565.8 L 626.2,568.3 L 630.6,570.8 L 634.9,573.4 L 639.3,575.9 L 643.6,578.4 L 648.0,580.9 L 652.4,583.4 L 656.7,586.0 L 661.1,588.5 L 665.5,591.0 L 669.8,593.5 L 674.2,596.0 L 678.6,598.6 L 682.9,601.1 L 687.3,603.6" fill="none" stroke="#1a3060" stroke-width="0.4" opacity="0.6" />
<path d="M 207.2,376.8 L 211.5,379.3 L 215.9,381.9 L 220.3,384.4 L 224.6,386.9 L 229.0,389.4 L 233.4,392.0 L 237.7,394.5 L 242.1,397.0 L 246.5,399.5 L 250.8,402.1 L 255.2,404.6 L 259.5,407.1 L 263.9,409.6 L 268.3,412.2 L 272.6,414.7 L 277.0,417.2 L 281.4,419.7 L 285.7,422.3 L 290.1,424.8 L 294.5,427.3 L 298.8,429.9 L 303.2,432.4 L 307.6,434.9 L 311.9,437.4 L 316.3,440.0 L 320.7,442.5 L 325.0,445.0 L 329.4,447.6 L 333.7,450.1 L 338.1,452.6 L 342.5,455.2 L 346.8,457.7 L 351.2,460.2 L 355.6,462.8 L 359.9,465.3 L 364.3,467.8 L 368.7,470.3 L 373.0,472.9 L 377.4,475.4 L 381.8,477.9 L 386.1,480.5 L 390.5,483.0 L 394.9,485.5 L 399.2,488.0 L 403.6,490.6 L 408.0,493.1 L 412.3,495.6 L 416.7,498.1 L 421.0,500.6 L 425.4,503.2 L 429.8,505.7 L 434.1,508.2 L 438.5,510.7 L 442.9,513.2 L 447.2,515.7 L 451.6,518.2 L 456.0,520.8 L 460.3,523.3 L 464.7,525.8 L 469.1,528.3 L 473.4,530.8 L 477.8,533.3 L 482.2,535.8 L 486.5,538.3 L 490.9,540.8 L 495.2,543.3 L 499.6,545.9 L 504.0,548.4 L 508.3,550.9 L 512.7,553.4 L 517.1,555.9 L 521.4,558.4 L 525.8,560.9 L 530.2,563.4 L 534.5,565.9 L 538.9,568.4 L 543.3,571.0 L 547.6,573.5 L 552.0,576.0 L 556.4,578.5 L 560.7,581.0 L 565.1,583.5 L 569.4,586.0 L 573.8,588.5 L 578.2,591.1 L 582.5,593.6 L 586.9,596.1 L 591.3,598.6 L 595.6,601.1 L 600.0,603.6 L 604.4,606.1 L 608.7,608.7 L 613.1,611.2 L 617.5,613.7 L 621.8,616.2 L 626.2,618.7 L 630.6,621.3 L 634.9,623.8 L 639.3,626.3 L 643.6,628.8" fill="none" stroke="#1a3060" stroke-width="0.4" opacity="0.6" />
<path d="M 163.5,402.1 L 167.9,404.6 L 172.3,407.1 L 176.6,409.7 L 181.0,412.2 L 185.3,414.7 L 189.7,417.3 L 194.1,419.8 L 198.4,422.4 L 202.8,424.9 L 207.2,427.4 L 211.5,430.0 L 215.9,432.5 L 220.3,435.1 L 224.6,437.6 L 229.0,440.2 L 233.4,442.7 L 237.7,445.3 L 242.1,447.9 L 246.5,450.4 L 250.8,453.0 L 255.2,455.5 L 259.5,458.1 L 263.9,460.7 L 268.3,463.2 L 272.6,465.8 L 277.0,468.4 L 281.4,471.0 L 285.7,473.5 L 290.1,476.1 L 294.5,478.7 L 298.8,481.2 L 303.2,483.8 L 307.6,486.4 L 311.9,488.9 L 316.3,491.5 L 320.7,494.1 L 325.0,496.6 L 329.4,499.2 L 333.7,501.8 L 338.1,504.3 L 342.5,506.9 L 346.8,509.4 L 351.2,511.9 L 355.6,514.5 L 359.9,517.0 L 364.3,519.5 L 368.7,522.1 L 373.0,524.6 L 377.4,527.1 L 381.8,529.6 L 386.1,532.1 L 390.5,534.6 L 394.9,537.1 L 399.2,539.6 L 403.6,542.1 L 408.0,544.6 L 412.3,547.1 L 416.7,549.6 L 421.0,552.0 L 425.4,554.5 L 429.8,557.0 L 434.1,559.5 L 438.5,561.9 L 442.9,564.4 L 447.2,566.9 L 451.6,569.3 L 456.0,571.8 L 460.3,574.3 L 464.7,576.7 L 469.1,579.2 L 473.4,581.7 L 477.8,584.2 L 482.2,586.6 L 486.5,589.1 L 490.9,591.6 L 495.2,594.1 L 499.6,596.5 L 504.0,599.0 L 508.3,601.5 L 512.7,604.0 L 517.1,606.5 L 521.4,609.0 L 525.8,611.5 L 530.2,613.9 L 534.5,616.4 L 538.9,618.9 L 543.3,621.4 L 547.6,623.9 L 552.0,626.4 L 556.4,628.9 L 560.7,631.4 L 565.1,633.9 L 569.4,636.5 L 573.8,639.0 L 578.2,641.5 L 582.5,644.0 L 586.9,646.5 L 591.3,649.0 L 595.6,651.5 L 600.0,654.0" fill="none" stroke="#1a3060" stroke-width="0.4" opacity="0.6" />
<path d="M 119.9,427.5 L 124.2,430.0 L 128.6,432.6 L 133.0,435.1 L 137.3,437.7 L 141.7,440.3 L 146.1,442.8 L 150.4,445.4 L 154.8,448.0 L 159.2,450.6 L 163.5,453.2 L 167.9,455.8 L 172.3,458.4 L 176.6,461.0 L 181.0,463.7 L 185.3,466.3 L 189.7,468.9 L 194.1,471.6 L 198.4,474.2 L 202.8,476.9 L 207.2,479.6 L 211.5,482.2 L 215.9,484.9 L 220.3,487.6 L 224.6,490.3 L 229.0,493.0 L 233.4,495.7 L 237.7,498.4 L 242.1,501.1 L 246.5,503.8 L 250.8,506.5 L 255.2,509.2 L 259.5,511.9 L 263.9,514.6 L 268.3,517.2 L 272.6,519.9 L 277.0,522.6 L 281.4,525.3 L 285.7,527.9 L 290.1,530.6 L 294.5,533.2 L 298.8,535.8 L 303.2,538.4 L 307.6,541.0 L 311.9,543.6 L 316.3,546.2 L 320.7,548.7 L 325.0,551.2 L 329.4,553.8 L 333.7,556.3 L 338.1,558.8 L 342.5,561.2 L 346.8,563.7 L 351.2,566.1 L 355.6,568.6 L 359.9,571.0 L 364.3,573.4 L 368.7,575.8 L 373.0,578.2 L 377.4,580.6 L 381.8,582.9 L 386.1,585.3 L 390.5,587.7 L 394.9,590.0 L 399.2,592.4 L 403.6,594.7 L 408.0,597.0 L 412.3,599.4 L 416.7,601.7 L 421.0,604.1 L 425.4,606.4 L 429.8,608.8 L 434.1,611.1 L 438.5,613.5 L 442.9,615.8 L 447.2,618.2 L 451.6,620.6 L 456.0,623.0 L 460.3,625.3 L 464.7,627.7 L 469.1,630.1 L 473.4,632.5 L 477.8,634.9 L 482.2,637.4 L 486.5,639.8 L 490.9,642.2 L 495.2,644.7 L 499.6,647.1 L 504.0,649.6 L 508.3,652.0 L 512.7,654.5 L 517.1,656.9 L 521.4,659.4 L 525.8,661.9 L 530.2,664.4 L 534.5,666.9 L 538.9,669.3 L 543.3,671.8 L 547.6,674.3 L 552.0,676.8 L 556.4,679.3" fill="none" stroke="#1a3060" stroke-width="0.4" opacity="0.6" />
<path d="M 76.2,453.1 L 80.6,455.7 L 85.0,458.3 L 89.3,460.9 L 93.7,463.6 L 98.1,466.2 L 102.4,468.9 L 106.8,471.6 L 111.1,474.3 L 115.5,477.0 L 119.9,479.7 L 124.2,482.5 L 128.6,485.2 L 133.0,488.0 L 137.3,490.8 L 141.7,493.6 L 146.1,496.5 L 150.4,499.3 L 154.8,502.2 L 159.2,505.1 L 163.5,508.0 L 167.9,510.9 L 172.3,513.8 L 176.6,516.8 L 181.0,519.7 L 185.3,522.7 L 189.7,525.7 L 194.1,528.6 L 198.4,531.6 L 202.8,534.6 L 207.2,537.6 L 211.5,540.6 L 215.9,543.5 L 220.3,546.5 L 224.6,549.5 L 229.0,552.4 L 233.4,555.3 L 237.7,558.2 L 242.1,561.1 L 246.5,563.9 L 250.8,566.8 L 255.2,569.5 L 259.5,572.3 L 263.9,575.0 L 268.3,577.7 L 272.6,580.3 L 277.0,582.9 L 281.4,585.5 L 285.7,588.0 L 290.1,590.5 L 294.5,592.9 L 298.8,595.3 L 303.2,597.7 L 307.6,600.0 L 311.9,602.3 L 316.3,604.6 L 320.7,606.8 L 325.0,609.0 L 329.4,611.2 L 333.7,613.3 L 338.1,615.5 L 342.5,617.6 L 346.8,619.7 L 351.2,621.7 L 355.6,623.8 L 359.9,625.9 L 364.3,627.9 L 368.7,630.0 L 373.0,632.0 L 377.4,634.1 L 381.8,636.2 L 386.1,638.2 L 390.5,640.3 L 394.9,642.4 L 399.2,644.5 L 403.6,646.6 L 408.0,648.8 L 412.3,650.9 L 416.7,653.1 L 421.0,655.3 L 425.4,657.5 L 429.8,659.7 L 434.1,661.9 L 438.5,664.2 L 442.9,666.5 L 447.2,668.7 L 451.6,671.1 L 456.0,673.4 L 460.3,675.7 L 464.7,678.1 L 469.1,680.4 L 473.4,682.8 L 477.8,685.2 L 482.2,687.6 L 486.5,690.0 L 490.9,692.5 L 495.2,694.9 L 499.6,697.4 L 504.0,699.8 L 508.3,702.3 L 512.7,704.7" fill="none" stroke="#1a3060" stroke-width="0.4" opacity="0.6" />
<path d="M 32.6,478.9 L 36.9,481.6 L 41.3,484.3 L 45.7,487.1 L 50.0,489.8 L 54.4,492.6 L 58.8,495.4 L 63.1,498.3 L 67.5,501.2 L 71.9,504.1 L 76.2,507.0 L 80.6,510.0 L 85.0,513.0 L 89.3,516.0 L 93.7,519.1 L 98.1,522.2 L 102.4,525.3 L 106.8,528.5 L 111.1,531.7 L 115.5,535.0 L 119.9,538.3 L 124.2,541.6 L 128.6,544.9 L 133.0,548.3 L 137.3,551.7 L 141.7,555.1 L 146.1,558.5 L 150.4,561.9 L 154.8,565.4 L 159.2,568.8 L 163.5,572.3 L 167.9,575.7 L 172.3,579.1 L 176.6,582.5 L 181.0,585.9 L 185.3,589.2 L 189.7,592.5 L 194.1,595.8 L 198.4,599.0 L 202.8,602.2 L 207.2,605.3 L 211.5,608.4 L 215.9,611.3 L 220.3,614.2 L 224.6,617.1 L 229.0,619.8 L 233.4,622.5 L 237.7,625.1 L 242.1,627.7 L 246.5,630.1 L 250.8,632.5 L 255.2,634.8 L 259.5,637.0 L 263.9,639.1 L 268.3,641.2 L 272.6,643.2 L 277.0,645.1 L 281.4,647.0 L 285.7,648.8 L 290.1,650.6 L 294.5,652.4 L 298.8,654.1 L 303.2,655.7 L 307.6,657.4 L 311.9,659.0 L 316.3,660.6 L 320.7,662.2 L 325.0,663.8 L 329.4,665.4 L 333.7,667.0 L 338.1,668.6 L 342.5,670.2 L 346.8,671.9 L 351.2,673.6 L 355.6,675.3 L 359.9,677.0 L 364.3,678.7 L 368.7,680.5 L 373.0,682.3 L 377.4,684.2 L 381.8,686.1 L 386.1,688.0 L 390.5,690.0 L 394.9,692.0 L 399.2,694.0 L 403.6,696.1 L 408.0,698.2 L 412.3,700.3 L 416.7,702.5 L 421.0,704.6 L 425.4,706.9 L 429.8,709.1 L 434.1,711.4 L 438.5,713.7 L 442.9,716.0 L 447.2,718.3 L 451.6,720.7 L 456.0,723.1 L 460.3,725.4 L 464.7,727.9 L 469.1,730.3" fill="none" stroke="#1a3060" stroke-width="0.4" opacity="0.6" />
<path d="M -11.1,504.8 L -6.7,507.6 L -2.3,510.4 L 2.0,513.2 L 6.4,516.1 L 10.8,519.1 L 15.1,522.0 L 19.5,525.0 L 23.9,528.1 L 28.2,531.2 L 32.6,534.3 L 36.9,537.5 L 41.3,540.8 L 45.7,544.1 L 50.0,547.4 L 54.4,550.8 L 58.8,554.3 L 63.1,557.8 L 67.5,561.4 L 71.9,565.0 L 76.2,568.7 L 80.6,572.4 L 85.0,576.1 L 89.3,579.9 L 93.7,583.8 L 98.1,587.6 L 102.4,591.5 L 106.8,595.4 L 111.1,599.3 L 115.5,603.2 L 119.9,607.2 L 124.2,611.1 L 128.6,614.9 L 133.0,618.8 L 137.3,622.6 L 141.7,626.4 L 146.1,630.1 L 150.4,633.7 L 154.8,637.3 L 159.2,640.8 L 163.5,644.2 L 167.9,647.5 L 172.3,650.7 L 176.6,653.9 L 181.0,656.9 L 185.3,659.7 L 189.7,662.5 L 194.1,665.2 L 198.4,667.7 L 202.8,670.1 L 207.2,672.4 L 211.5,674.6 L 215.9,676.6 L 220.3,678.6 L 224.6,680.4 L 229.0,682.1 L 233.4,683.8 L 237.7,685.3 L 242.1,686.8 L 246.5,688.2 L 250.8,689.6 L 255.2,690.8 L 259.5,692.1 L 263.9,693.3 L 268.3,694.4 L 272.6,695.6 L 277.0,696.7 L 281.4,697.8 L 285.7,699.0 L 290.1,700.1 L 294.5,701.2 L 298.8,702.4 L 303.2,703.6 L 307.6,704.9 L 311.9,706.1 L 316.3,707.5 L 320.7,708.8 L 325.0,710.2 L 329.4,711.7 L 333.7,713.2 L 338.1,714.8 L 342.5,716.4 L 346.8,718.1 L 351.2,719.8 L 355.6,721.6 L 359.9,723.4 L 364.3,725.3 L 368.7,727.2 L 373.0,729.2 L 377.4,731.3 L 381.8,733.3 L 386.1,735.4 L 390.5,737.6 L 394.9,739.8 L 399.2,742.0 L 403.6,744.2 L 408.0,746.5 L 412.3,748.8 L 416.7,751.1 L 421.0,753.4 L 425.4,755.8" fill="none" stroke="#1a3060" stroke-width="0.4" opacity="0.6" />
<path d="M -54.7,530.3 L -50.4,533.1 L -46.0,536.0 L -41.6,538.9 L -37.3,541.8 L -32.9,544.8 L -28.5,547.8 L -24.2,550.9 L -19.8,554.0 L -15.4,557.2 L -11.1,560.5 L -6.7,563.8 L -2.3,567.1 L 2.0,570.5 L 6.4,574.0 L 10.8,577.6 L 15.1,581.2 L 19.5,584.8 L 23.9,588.5 L 28.2,592.3 L 32.6,596.2 L 36.9,600.0 L 41.3,604.0 L 45.7,608.0 L 50.0,612.0 L 54.4,616.0 L 58.8,620.1 L 63.1,624.2 L 67.5,628.4 L 71.9,632.5 L 76.2,636.6 L 80.6,640.7 L 85.0,644.8 L 89.3,648.8 L 93.7,652.8 L 98.1,656.8 L 102.4,660.7 L 106.8,664.5 L 111.1,668.2 L 115.5,671.8 L 119.9,675.4 L 124.2,678.8 L 128.6,682.1 L 133.0,685.3 L 137.3,688.4 L 141.7,691.3 L 146.1,694.1 L 150.4,696.8 L 154.8,699.3 L 159.2,701.7 L 163.5,704.0 L 167.9,706.1 L 172.3,708.1 L 176.6,710.0 L 181.0,711.7 L 185.3,713.3 L 189.7,714.8 L 194.1,716.3 L 198.4,717.6 L 202.8,718.8 L 207.2,720.0 L 211.5,721.1 L 215.9,722.1 L 220.3,723.1 L 224.6,724.1 L 229.0,725.0 L 233.4,726.0 L 237.7,726.9 L 242.1,727.8 L 246.5,728.7 L 250.8,729.7 L 255.2,730.7 L 259.5,731.7 L 263.9,732.7 L 268.3,733.8 L 272.6,735.0 L 277.0,736.2 L 281.4,737.4 L 285.7,738.7 L 290.1,740.1 L 294.5,741.5 L 298.8,743.0 L 303.2,744.6 L 307.6,746.2 L 311.9,747.8 L 316.3,749.6 L 320.7,751.4 L 325.0,753.2 L 329.4,755.1 L 333.7,757.1 L 338.1,759.1 L 342.5,761.1 L 346.8,763.2 L 351.2,765.3 L 355.6,767.5 L 359.9,769.7 L 364.3,771.9 L 368.7,774.2 L 373.0,776.5 L 377.4,778.8 L 381.8,781.2" fill="none" stroke="#1a3060" stroke-width="0.4" opacity="0.6" />
</g>
<g>
<polygon points="600.0,330.0 78.9,497.6 12.6,459.3" fill="#111e3a" opacity="0.2"/>
<polygon points="600.0,330.0 119.8,521.2 78.9,497.6" fill="#131e3a" opacity="0.15"/>
<polygon points="600.0,330.0 152.9,540.3 119.8,521.2" fill="#151e3a" opacity="0.1"/>
<polygon points="600.0,330.0 186.1,559.4 152.9,540.3" fill="#b08020" opacity="0.09"/>
<polygon points="600.0,330.0 233.2,586.7 186.1,559.4" fill="#151e3a" opacity="0.1"/>
<polygon points="600.0,330.0 293.2,621.3 233.2,586.7" fill="#131e3a" opacity="0.15"/>
<line x1="600.0" y1="330.0" x2="12.6" y2="459.3" stroke="#1e3a6a" stroke-width="0.7" opacity="0.2" />
<circle cx="12.6" cy="459.3" r="3" fill="#1e3a6a" opacity="0.2" />
<text x="20.6" y="463.3" font-family="Inconsolata,monospace" font-size="9" fill="#3a5080" opacity="0.40" letter-spacing="1">0%</text>
<line x1="600.0" y1="330.0" x2="78.9" y2="497.6" stroke="#1e3a6a" stroke-width="0.7" opacity="0.2" />
<circle cx="78.9" cy="497.6" r="3" fill="#1e3a6a" opacity="0.2" />
<text x="86.9" y="501.6" font-family="Inconsolata,monospace" font-size="9" fill="#3a5080" opacity="0.40" letter-spacing="1">23.6%</text>
<line x1="600.0" y1="330.0" x2="119.8" y2="521.2" stroke="#1e3a6a" stroke-width="0.7" opacity="0.2" />
<circle cx="119.8" cy="521.2" r="3" fill="#1e3a6a" opacity="0.2" />
<text x="127.8" y="525.2" font-family="Inconsolata,monospace" font-size="9" fill="#3a5080" opacity="0.40" letter-spacing="1">38.2%</text>
<line x1="600.0" y1="330.0" x2="152.9" y2="540.3" stroke="#9a7840" stroke-width="1.2" opacity="0.45" />
<circle cx="152.9" cy="540.3" r="3" fill="#9a7840" opacity="0.45" />
<text x="160.9" y="544.3" font-family="Inconsolata,monospace" font-size="9" fill="#9a7840" opacity="0.60" letter-spacing="1">50%</text>
<line x1="600.0" y1="330.0" x2="186.1" y2="559.4" stroke="#d4a85a" stroke-width="2.0" opacity="0.78" />
<line x1="600.0" y1="330.0" x2="186.1" y2="559.4" stroke="#d4a85a" stroke-width="4" opacity="0.18" filter="url(#glow6)"/>
<circle cx="186.1" cy="559.4" r="5" fill="#d4a85a" opacity="0.9" />
<text x="194.1" y="563.4" font-family="Inconsolata,monospace" font-size="9" fill="#d4a85a" opacity="0.90" letter-spacing="1">61.8% φ</text>
<line x1="600.0" y1="330.0" x2="233.2" y2="586.7" stroke="#1e3a6a" stroke-width="0.7" opacity="0.2" />
<circle cx="233.2" cy="586.7" r="3" fill="#1e3a6a" opacity="0.2" />
<text x="241.2" y="590.7" font-family="Inconsolata,monospace" font-size="9" fill="#3a5080" opacity="0.40" letter-spacing="1">78.6%</text>
<line x1="600.0" y1="330.0" x2="293.2" y2="621.3" stroke="#1e3a6a" stroke-width="0.7" opacity="0.2" />
<circle cx="293.2" cy="621.3" r="3" fill="#1e3a6a" opacity="0.2" />
<text x="301.2" y="625.3" font-family="Inconsolata,monospace" font-size="9" fill="#3a5080" opacity="0.40" letter-spacing="1">100%</text>
<line x1="450.0" y1="360.5" x2="526.4" y2="404.6" stroke="#d4a85a" stroke-width="1" opacity="0.06" />
<line x1="303.2" y1="392.9" x2="449.7" y2="477.5" stroke="#d4a85a" stroke-width="1" opacity="0.06" />
<line x1="156.4" y1="425.2" x2="373.0" y2="550.3" stroke="#d4a85a" stroke-width="1" opacity="0.06" />
<line x1="9.5" y1="457.5" x2="296.4" y2="623.1" stroke="#d4a85a" stroke-width="1" opacity="0.3" />
</g>
<g>
<path d="M 610.6,336.1 L 609.6,336.5 L 608.3,336.0 L 606.4,334.6 L 603.8,332.3 L 600.5,329.3 L 596.3,325.9 L 591.2,322.3 L 585.4,318.7 L 578.8,315.5 L 571.7,312.9 L 564.3,311.3 L 556.7,310.9 L 549.4,311.9 L 542.4,314.3 L 536.1,318.3 L 530.7,323.7 L 526.3,330.5 L 523.3,338.4 L 521.5,347.3 L 521.1,356.6 L 521.9,366.1 L 523.9,375.4 L 526.9,384.0 L 530.7,391.6 L 534.9,397.8 L 539.2,402.4 L 543.3,405.1 L 546.9,405.7 L 549.6,404.4 L 551.2,401.1 L 551.5,396.1 L 550.1,389.5 L 547.2,381.7 L 542.6,373.2 L 536.3,364.3 L 528.6,355.6 L 519.7,347.5 L 509.8,340.5 L 499.2,334.9 L 488.3,331.2 L 477.5,329.5 L 467.1,330.1 L 457.5,332.9 L 449.0,338.0 L 441.9,345.2 L 436.4,354.2 L 432.7,364.7 L 430.6,376.3 L 430.4,388.5 L 431.7,400.9 L 434.5,413.1 L 438.5,424.5 L 443.4,434.7 L 448.9,443.5 L 454.6,450.5 L 460.2,455.4 L 465.3,458.4 L 469.7,459.3 L 473.0,458.2 L 475.2,455.4 L 476.0,451.0 L 475.4,445.5 L 473.4,439.2 L 470.1,432.4 L 465.6,425.5 L 460.0,418.9 L 453.7,412.9 L 446.9,407.8 L 439.7,403.7 L 432.6,400.9 L 425.6,399.2 L 419.1,398.8 L 413.1,399.4 L 407.7,401.0 L 403.1,403.4 L 399.2,406.2 L 396.0,409.2 L 393.3,412.2 L 391.1,415.0 L 389.1,417.3" fill="none" stroke="#5a9fd4" stroke-width="1.5" opacity="0.55" filter="url(#glow3)"/>
<path d="M 606.9,334.0 L 602.6,334.1 L 598.5,335.0 L 594.7,336.8 L 591.5,339.4 L 588.9,342.6 L 587.1,346.3 L 585.9,350.3 L 585.4,354.2 L 585.4,357.8 L 585.9,360.8 L 586.7,362.9 L 587.4,364.0 L 587.9,363.9 L 588.0,362.4 L 587.3,359.6 L 585.7,355.5 L 583.0,350.2 L 579.1,344.0 L 573.9,337.1 L 567.4,329.9 L 559.6,322.7 L 550.8,316.1 L 541.0,310.3 L 530.7,305.7 L 520.0,302.8 L 509.3,301.7 L 498.9,302.7 L 489.3,305.9 L 480.6,311.3 L 473.3,318.8 L 467.5,328.3 L 463.4,339.4 L 461.1,351.8 L 460.7,365.1 L 462.0,378.8 L 465.0,392.3 L 469.5,405.3 L 475.0,417.3 L 481.4,427.7 L 488.3,436.3 L 495.2,442.8 L 501.8,447.0 L 507.7,448.8 L 512.6,448.2 L 516.2,445.4 L 518.3,440.6 L 518.7,434.1 L 517.4,426.3 L 514.4,417.7 L 509.7,408.7 L 503.5,399.7 L 496.2,391.2 L 487.8,383.7 L 478.8,377.4 L 469.5,372.6 L 460.2,369.6 L 451.2,368.4 L 442.8,369.0 L 435.3,371.3 L 428.9,375.2 L 423.6,380.4 L 419.6,386.6 L 416.7,393.4 L 415.0,400.6 L 414.3,407.7 L 414.4,414.4 L 415.1,420.4 L 416.2,425.5 L 417.4,429.5 L 418.4,432.3 L 419.0,433.8 L 419.1,434.2 L 418.4,433.6 L 417.0,432.1 L 414.7,430.0 L 411.5,427.5 L 407.6,424.9 L 403.1,422.6 L 398.1,420.7 L 392.8,419.4" fill="none" stroke="#5a9fd4" stroke-width="0.8" opacity="0.25" filter="url(#glow3)"/>
<path d="M 608.7,335.0 L 606.8,337.5 L 604.5,339.8 L 601.9,342.0 L 598.9,344.2 L 595.5,346.5 L 591.9,348.9 L 588.0,351.5 L 583.8,354.4 L 579.5,357.6 L 575.1,361.1 L 570.5,364.9 L 566.0,369.1 L 561.5,373.5 L 557.0,378.3 L 552.6,383.3 L 548.3,388.4 L 544.1,393.6 L 539.9,398.9 L 535.9,404.0 L 531.9,409.0 L 528.0,413.7 L 523.9,418.0 L 519.8,421.9 L 515.5,425.3 L 511.0,428.1 L 506.2,430.3 L 501.1,431.9 L 495.5,432.9 L 489.4,433.3 L 482.9,433.1 L 475.8,432.4 L 468.2,431.3 L 460.0,429.8 L 451.4,428.1 L 442.2,426.2 L 432.5,424.3 L 422.5,422.5 L 412.2,420.8 L 401.7,419.4 L 391.0,418.4" fill="none" stroke="#5a9fd4" stroke-width="0.5" opacity="0.22" />
<path d="M 608.7,335.0 L 606.8,337.5 L 604.5,339.8 L 601.9,342.0 L 598.9,344.2 L 595.5,346.5 L 591.9,348.9 L 588.0,351.5 L 583.8,354.4 L 579.5,357.6 L 575.1,361.1 L 570.5,364.9 L 566.0,369.1 L 561.5,373.5 L 557.0,378.3 L 552.6,383.3 L 548.3,388.4 L 544.1,393.6 L 539.9,398.9 L 535.9,404.0 L 531.9,409.0 L 528.0,413.7 L 523.9,418.0 L 519.8,421.9 L 515.5,425.3 L 511.0,428.1 L 506.2,430.3 L 501.1,431.9 L 495.5,432.9 L 489.4,433.3 L 482.9,433.1 L 475.8,432.4 L 468.2,431.3 L 460.0,429.8 L 451.4,428.1 L 442.2,426.2 L 432.5,424.3 L 422.5,422.5 L 412.2,420.8 L 401.7,419.4 L 391.0,418.4" fill="none" stroke="#5a9fd4" stroke-width="0.4" opacity="0.15" />
<path d="M 608.7,335.0 L 599.9,333.5 L 590.9,331.9 L 581.5,330.2 L 571.9,328.6 L 562.1,327.2 L 552.3,326.0 L 542.4,325.2 L 532.5,324.8 L 522.8,324.8 L 513.3,325.4 L 504.2,326.6 L 495.4,328.3 L 487.0,330.6 L 479.2,333.4 L 471.9,336.7 L 465.2,340.5 L 459.2,344.6 L 453.7,349.1 L 448.9,353.8 L 444.6,358.6 L 440.9,363.4 L 437.7,368.2 L 434.9,372.9 L 432.5,377.3 L 430.4,381.5 L 428.4,385.4 L 426.6,388.9 L 424.9,392.1 L 423.1,395.0 L 421.2,397.5 L 419.1,399.7 L 416.9,401.7 L 414.4,403.5 L 411.7,405.2 L 408.8,406.9 L 405.6,408.7 L 402.2,410.7 L 398.6,412.9 L 394.8,415.4 L 391.0,418.4" fill="none" stroke="#5a9fd4" stroke-width="0.5" opacity="0.22" />
<path d="M 608.7,335.0 L 599.9,333.5 L 590.9,331.9 L 581.5,330.2 L 571.9,328.6 L 562.1,327.2 L 552.3,326.0 L 542.4,325.2 L 532.5,324.8 L 522.8,324.8 L 513.3,325.4 L 504.2,326.6 L 495.4,328.3 L 487.0,330.6 L 479.2,333.4 L 471.9,336.7 L 465.2,340.5 L 459.2,344.6 L 453.7,349.1 L 448.9,353.8 L 444.6,358.6 L 440.9,363.4 L 437.7,368.2 L 434.9,372.9 L 432.5,377.3 L 430.4,381.5 L 428.4,385.4 L 426.6,388.9 L 424.9,392.1 L 423.1,395.0 L 421.2,397.5 L 419.1,399.7 L 416.9,401.7 L 414.4,403.5 L 411.7,405.2 L 408.8,406.9 L 405.6,408.7 L 402.2,410.7 L 398.6,412.9 L 394.8,415.4 L 391.0,418.4" fill="none" stroke="#5a9fd4" stroke-width="0.4" opacity="0.15" />
</g>
<g>
<path d="M 365.1,423.9 L 360.3,425.3 L 355.9,427.6 L 351.9,430.7 L 348.4,434.6 L 345.6,439.1 L 343.5,444.0 L 342.1,449.2 L 341.4,454.5 L 341.3,459.6 L 341.7,464.2 L 342.4,468.2 L 343.2,471.4 L 344.0,473.5 L 344.5,474.5 L 344.6,474.4 L 344.0,473.2 L 342.7,471.0 L 340.4,467.9 L 337.2,464.2 L 333.0,460.1 L 327.8,455.9 L 321.9,452.0 L 315.2,448.5 L 308.0,445.9 L 300.5,444.3 L 293.0,444.1 L 285.8,445.3 L 279.0,448.0 L 272.9,452.3 L 267.8,458.0 L 263.8,465.1 L 261.0,473.4 L 259.6,482.4 L 259.5,492.0 L 260.7,501.7 L 263.0,511.2 L 266.3,520.1 L 270.3,528.0 L 274.9,534.6 L 279.6,539.7 L 284.2,543.0 L 288.5,544.5 L 292.0,544.0 L 294.5,541.6 L 295.9,537.5 L 296.0,531.8 L 294.6,524.8 L 291.7,516.9 L 287.3,508.4 L 281.5,499.7 L 274.5,491.1 L 266.5,483.1 L 257.6,476.0 L 248.2,470.0 L 238.6,465.5 L 228.9,462.5 L 219.5,461.2 L 210.7,461.5 L 202.5,463.5 L 195.3,466.9 L 189.1,471.5 L 184.0,477.2 L 179.9,483.6 L 176.9,490.5 L 174.8,497.5 L 173.5,504.5 L 172.8,511.0 L 172.6,517.0 L 172.7,522.3 L 172.8,526.8 L 172.8,530.4 L 172.5,533.1 L 171.8,535.1 L 170.7,536.5 L 169.0,537.4 L 166.9,538.0 L 164.3,538.5 L 161.4,539.1 L 158.1,540.0 L 154.8,541.4" fill="none" stroke="#c45aad" stroke-width="1.5" opacity="0.55" filter="url(#glow3)"/>
<path d="M 368.8,426.0 L 366.7,427.5 L 364.3,428.4 L 361.7,428.8 L 358.6,428.7 L 355.1,428.1 L 351.1,427.3 L 346.5,426.4 L 341.4,425.7 L 335.9,425.4 L 330.2,425.6 L 324.3,426.7 L 318.6,428.6 L 313.0,431.7 L 308.0,435.9 L 303.6,441.3 L 300.0,447.8 L 297.3,455.2 L 295.8,463.5 L 295.4,472.3 L 296.0,481.5 L 297.8,490.5 L 300.5,499.3 L 304.0,507.3 L 308.0,514.3 L 312.4,520.0 L 316.9,524.2 L 321.1,526.7 L 324.8,527.4 L 327.8,526.3 L 329.8,523.5 L 330.6,519.0 L 330.0,513.2 L 328.0,506.2 L 324.6,498.4 L 319.7,490.2 L 313.5,482.0 L 306.2,474.1 L 297.9,467.0 L 289.0,460.9 L 279.6,456.2 L 270.1,453.0 L 260.9,451.6 L 252.1,451.9 L 244.0,454.0 L 236.9,457.8 L 230.9,463.1 L 226.1,469.6 L 222.7,477.1 L 220.5,485.2 L 219.5,493.5 L 219.6,501.8 L 220.6,509.6 L 222.3,516.6 L 224.4,522.7 L 226.7,527.5 L 228.9,530.9 L 230.8,532.9 L 232.0,533.5 L 232.6,532.8 L 232.3,530.8 L 230.9,527.9 L 228.6,524.3 L 225.2,520.2 L 220.9,515.9 L 215.8,511.8 L 210.1,508.1 L 203.8,505.0 L 197.3,502.8 L 190.7,501.5 L 184.3,501.4 L 178.1,502.3 L 172.5,504.3 L 167.5,507.3 L 163.1,511.1 L 159.5,515.5 L 156.7,520.3 L 154.5,525.3 L 152.9,530.2 L 151.8,535.0 L 151.1,539.2" fill="none" stroke="#c45aad" stroke-width="0.8" opacity="0.25" filter="url(#glow3)"/>
<path d="M 367.0,424.9 L 362.8,429.6 L 358.9,434.7 L 355.3,440.3 L 352.0,446.2 L 349.1,452.5 L 346.5,459.0 L 344.2,465.6 L 342.2,472.1 L 340.4,478.6 L 338.8,484.8 L 337.2,490.7 L 335.8,496.1 L 334.2,501.0 L 332.5,505.4 L 330.5,509.1 L 328.1,512.1 L 325.4,514.5 L 322.1,516.2 L 318.3,517.2 L 313.9,517.7 L 308.8,517.8 L 303.1,517.4 L 296.8,516.7 L 289.8,515.8 L 282.2,514.9 L 274.1,514.0 L 265.6,513.2 L 256.6,512.7 L 247.4,512.6 L 238.0,512.9 L 228.5,513.6 L 219.1,514.8 L 209.7,516.6 L 200.5,518.9 L 191.6,521.7 L 183.1,524.8 L 174.9,528.4 L 167.2,532.2 L 159.8,536.2 L 152.9,540.3" fill="none" stroke="#c45aad" stroke-width="0.5" opacity="0.22" />
<path d="M 367.0,424.9 L 357.4,426.5 L 348.2,428.5 L 339.3,431.0 L 330.8,434.0 L 322.8,437.4 L 315.3,441.0 L 308.3,444.9 L 301.8,448.9 L 295.8,452.9 L 290.3,456.8 L 285.1,460.6 L 280.3,464.1 L 275.7,467.3 L 271.3,470.1 L 267.1,472.5 L 262.9,474.4 L 258.7,475.9 L 254.4,477.0 L 249.9,477.7 L 245.3,478.1 L 240.5,478.3 L 235.4,478.3 L 230.1,478.2 L 224.6,478.2 L 218.9,478.3 L 213.0,478.7 L 207.1,479.5 L 201.2,480.7 L 195.3,482.5 L 189.5,484.9 L 184.0,487.9 L 178.8,491.6 L 173.9,495.9 L 169.4,500.9 L 165.4,506.5 L 161.9,512.6 L 158.9,519.2 L 156.4,526.0 L 154.5,533.1 L 152.9,540.3" fill="none" stroke="#c45aad" stroke-width="0.5" opacity="0.22" />
</g>
<g>
<path d="M 608.7,335.0 L 607.6,335.2 L 606.5,335.3 L 605.4,335.4 L 604.3,335.4 L 603.1,335.5 L 602.0,335.6 L 600.8,335.7 L 599.6,335.7 L 598.4,335.8 L 597.2,335.9 L 596.0,335.9 L 594.7,336.0 L 593.5,336.0 L 592.2,336.1 L 590.9,336.2 L 589.6,336.2 L 588.3,336.3 L 587.0,336.4 L 585.6,336.4 L 584.3,336.5 L 582.9,336.6 L 581.6,336.7 L 580.2,336.8 L 578.8,336.9 L 577.4,337.0 L 576.0,337.1 L 574.6,337.2 L 573.2,337.4 L 571.8,337.5 L 570.4,337.7 L 568.9,337.9 L 567.5,338.0 L 566.0,338.2 L 564.6,338.5 L 563.1,338.7 L 561.7,338.9 L 560.2,339.2 L 558.8,339.5 L 557.3,339.8" fill="none" stroke="#d4a85a" stroke-width="3.0" opacity="0.92" filter="url(#glow3)"/>
<path d="M 555.8,340.1 L 554.4,340.4 L 552.9,340.8 L 551.5,341.1 L 550.0,341.5 L 548.6,341.9 L 547.1,342.3 L 545.7,342.8 L 544.2,343.2 L 542.8,343.7 L 541.3,344.2 L 539.9,344.7 L 538.5,345.3 L 537.1,345.8 L 535.7,346.4 L 534.3,347.0 L 532.9,347.6 L 531.5,348.3 L 530.1,348.9 L 528.8,349.6 L 527.4,350.3 L 526.1,351.0 L 524.8,351.7 L 523.5,352.5 L 522.2,353.3 L 520.9,354.0 L 519.6,354.8 L 518.3,355.7 L 517.1,356.5 L 515.9,357.3 L 514.6,358.2 L 513.4,359.1 L 512.2,360.0 L 511.1,360.9 L 509.9,361.8 L 508.8,362.7 L 507.6,363.7 L 506.5,364.6 L 505.4,365.6 L 504.4,366.6 L 503.3,367.5 L 502.2,368.5 L 501.2,369.5 L 500.2,370.5 L 499.2,371.5 L 498.2,372.5 L 497.2,373.6 L 496.3,374.6 L 495.3,375.6 L 494.4,376.6 L 493.5,377.7 L 492.6,378.7 L 491.7,379.7 L 490.8,380.7 L 490.0,381.7 L 489.1,382.8 L 488.3,383.8 L 487.5,384.8 L 486.7,385.8 L 485.9,386.8 L 485.1,387.8 L 484.3,388.7 L 483.5,389.7 L 482.8,390.7 L 482.0,391.6 L 481.3,392.5 L 480.5,393.5 L 479.8,394.4 L 479.1,395.3 L 478.4,396.2 L 477.7,397.0 L 477.0,397.9 L 476.2,398.7 L 475.6,399.5 L 474.9,400.4 L 474.2,401.1 L 473.5,401.9 L 472.8,402.7 L 472.1,403.4 L 471.4,404.1" fill="none" stroke="#5ad48a" stroke-width="3.0" opacity="0.92" filter="url(#glow3)"/>
<path d="M 470.7,404.8 L 470.0,405.5 L 469.3,406.1 L 468.6,406.8 L 467.9,407.4 L 467.2,408.0 L 466.5,408.5 L 465.8,409.1 L 465.0,409.6 L 464.3,410.1 L 463.5,410.6 L 462.8,411.1 L 462.0,411.5 L 461.3,412.0 L 460.5,412.4 L 459.7,412.7 L 458.9,413.1 L 458.1,413.4 L 457.3,413.8 L 456.4,414.1 L 455.6,414.3 L 454.7,414.6 L 453.8,414.9 L 452.9,415.1 L 452.0,415.3 L 451.1,415.5 L 450.2,415.6 L 449.2,415.8 L 448.3,415.9 L 447.3,416.1 L 446.3,416.2 L 445.3,416.3 L 444.2,416.4 L 443.2,416.4 L 442.1,416.5 L 441.0,416.6 L 439.9,416.6 L 438.8,416.6 L 437.7,416.6 L 436.5,416.7" fill="none" stroke="#d4a85a" stroke-width="3.0" opacity="0.92" filter="url(#glow3)"/>
<path d="M 435.4,416.7 L 434.2,416.7 L 433.0,416.7 L 431.8,416.6 L 430.6,416.6 L 429.3,416.6 L 428.0,416.6 L 426.8,416.6 L 425.5,416.6 L 424.2,416.5 L 422.8,416.5 L 421.5,416.5 L 420.1,416.5 L 418.8,416.5 L 417.4,416.5 L 416.0,416.5 L 414.6,416.5 L 413.2,416.6 L 411.8,416.6 L 410.3,416.6 L 408.9,416.7 L 407.4,416.7 L 406.0,416.8 L 404.5,416.9 L 403.0,417.0 L 401.5,417.1 L 400.0,417.2 L 398.5,417.4 L 397.0,417.5 L 395.5,417.7 L 394.0,417.9 L 392.5,418.1 L 391.0,418.4 L 389.5,418.6 L 387.9,418.9 L 386.4,419.2 L 384.9,419.5 L 383.4,419.8 L 381.9,420.2 L 380.4,420.6 L 378.8,420.9 L 377.3,421.4 L 375.8,421.8 L 374.3,422.3 L 372.8,422.8 L 371.4,423.3 L 369.9,423.8 L 368.4,424.4" fill="none" stroke="#e07050" stroke-width="3.0" opacity="0.92" filter="url(#glow3)"/>
<path d="M 367.0,424.9 L 365.5,425.5 L 364.1,426.2 L 362.6,426.8 L 361.2,427.5 L 359.8,428.2 L 358.4,428.9 L 357.1,429.6 L 355.7,430.4 L 354.3,431.1 L 353.0,431.9 L 351.7,432.7 L 350.4,433.6 L 349.1,434.4 L 347.8,435.3 L 346.5,436.2" fill="none" stroke="#5a9fd4" stroke-width="3.0" opacity="0.92" filter="url(#glow3)"/>
<path d="M 345.3,437.1 L 344.1,438.0 L 342.8,439.0 L 341.6,439.9 L 340.5,440.9 L 339.3,441.9 L 338.2,442.9 L 337.0,443.9 L 335.9,444.9 L 334.9,446.0 L 333.8,447.0 L 332.7,448.1 L 331.7,449.1 L 330.7,450.2 L 329.7,451.3 L 328.7,452.4 L 327.7,453.5 L 326.8,454.6 L 325.9,455.7 L 325.0,456.8 L 324.1,457.9 L 323.2,459.0 L 322.3,460.1 L 321.5,461.1 L 320.7,462.2 L 319.8,463.3 L 319.0,464.4 L 318.3,465.5 L 317.5,466.6 L 316.7,467.6 L 316.0,468.7 L 315.2,469.8 L 314.5,470.8 L 313.8,471.8 L 313.1,472.8 L 312.4,473.8 L 311.7,474.8 L 311.0,475.8 L 310.4,476.8 L 309.7,477.7 L 309.0,478.6 L 308.4,479.6 L 307.8,480.4 L 307.1,481.3 L 306.5,482.2 L 305.8,483.0 L 305.2,483.8 L 304.6,484.6" fill="none" stroke="#5ad48a" stroke-width="3.0" opacity="0.92" filter="url(#glow3)"/>
<path d="M 303.9,485.4 L 303.3,486.2 L 302.7,486.9 L 302.0,487.6 L 301.4,488.3 L 300.7,488.9 L 300.1,489.6 L 299.4,490.2 L 298.8,490.8 L 298.1,491.3 L 297.5,491.9 L 296.8,492.4 L 296.1,492.9 L 295.4,493.4 L 294.7,493.8 L 294.0,494.2 L 293.2,494.6 L 292.5,495.0 L 291.7,495.3 L 291.0,495.7 L 290.2,496.0 L 289.4,496.2 L 288.6,496.5 L 287.8,496.7 L 286.9,496.9 L 286.1,497.1 L 285.2,497.3 L 284.3,497.5 L 283.4,497.6 L 282.5,497.7 L 281.5,497.8 L 280.6,497.9" fill="none" stroke="#e07050" stroke-width="3.0" opacity="0.92" filter="url(#glow3)"/>
<path d="M 279.6,497.9 L 278.6,498.0 L 277.6,498.0 L 276.6,498.0 L 275.5,498.0 L 274.4,498.0 L 273.4,498.0 L 272.2,498.0 L 271.1,497.9 L 270.0,497.9 L 268.8,497.8 L 267.6,497.7 L 266.4,497.6 L 265.2,497.6 L 263.9,497.5 L 262.7,497.4 L 261.4,497.3 L 260.1,497.2 L 258.8,497.1 L 257.4,497.0 L 256.1,496.9 L 254.7,496.8 L 253.4,496.8 L 252.0,496.7" fill="none" stroke="#5a9fd4" stroke-width="3.0" opacity="0.92" filter="url(#glow3)"/>
<path d="M 250.5,496.6 L 249.1,496.5 L 247.7,496.5 L 246.2,496.4 L 244.8,496.4 L 243.3,496.3 L 241.8,496.3 L 240.3,496.3 L 238.8,496.3 L 237.3,496.3 L 235.7,496.4 L 234.2,496.4 L 232.6,496.5 L 231.1,496.6 L 229.5,496.7 L 228.0,496.8 L 226.4,496.9 L 224.8,497.1 L 223.2,497.3 L 221.7,497.5" fill="none" stroke="#5ad48a" stroke-width="3.0" opacity="0.92" filter="url(#glow3)"/>
<path d="M 220.1,497.7 L 218.5,498.0 L 216.9,498.2 L 215.4,498.5 L 213.8,498.9 L 212.2,499.2 L 210.6,499.6 L 209.1,500.0 L 207.5,500.4 L 206.0,500.8 L 204.4,501.3 L 202.9,501.8 L 201.3,502.3 L 199.8,502.9 L 198.3,503.4 L 196.8,504.0 L 195.3,504.7 L 193.8,505.3 L 192.4,506.0 L 190.9,506.7 L 189.5,507.4 L 188.1,508.2 L 186.6,508.9 L 185.2,509.7 L 183.9,510.6 L 182.5,511.4 L 181.2,512.3 L 179.8,513.2 L 178.5,514.1 L 177.2,515.0 L 176.0,516.0 L 174.7,516.9 L 173.5,517.9 L 172.2,518.9 L 171.0,520.0 L 169.9,521.0 L 168.7,522.1 L 167.6,523.1 L 166.5,524.2 L 165.4,525.3 L 164.3,526.4 L 163.2,527.5 L 162.2,528.7 L 161.2,529.8 L 160.2,531.0 L 159.2,532.1 L 158.3,533.3 L 157.3,534.5 L 156.4,535.6 L 155.5,536.8 L 154.6,538.0 L 153.8,539.1 L 152.9,540.3" fill="none" stroke="#c45aad" stroke-width="3.0" opacity="0.92" filter="url(#glow3)"/>
</g>
<g opacity="0.82">
<line x1="578.8" y1="336.9" x2="578.8" y2="315.3" stroke="#5ad48a" stroke-width="1.3" opacity="0.65" />
<rect x="575.3" y="318.5" width="7" height="11.9" fill="#5ad48a" opacity="0.88" />
<circle cx="578.8" cy="336.9" r="3" fill="#5ad48a" opacity="1.0" />
<line x1="532.9" y1="347.6" x2="532.9" y2="326.0" stroke="#5ad48a" stroke-width="1.3" opacity="0.65" />
<rect x="529.4" y="329.3" width="7" height="11.9" fill="#5ad48a" opacity="0.88" />
<circle cx="532.9" cy="347.6" r="3" fill="#5ad48a" opacity="1.0" />
<line x1="495.3" y1="375.6" x2="495.3" y2="354.0" stroke="#5ad48a" stroke-width="1.3" opacity="0.65" />
<rect x="491.8" y="357.2" width="7" height="11.9" fill="#5ad48a" opacity="0.88" />
<circle cx="495.3" cy="375.6" r="3" fill="#5ad48a" opacity="1.0" />
<line x1="470.7" y1="404.8" x2="470.7" y2="383.2" stroke="#5ad48a" stroke-width="1.3" opacity="0.65" />
<rect x="467.2" y="386.4" width="7" height="11.9" fill="#5ad48a" opacity="0.88" />
<circle cx="470.7" cy="404.8" r="3" fill="#5ad48a" opacity="1.0" />
<line x1="452.0" y1="415.3" x2="452.0" y2="393.7" stroke="#5ad48a" stroke-width="1.3" opacity="0.65" />
<rect x="448.5" y="396.9" width="7" height="11.9" fill="#5ad48a" opacity="0.88" />
<circle cx="452.0" cy="415.3" r="3" fill="#5ad48a" opacity="1.0" />
<line x1="425.5" y1="416.6" x2="425.5" y2="438.2" stroke="#e07050" stroke-width="1.3" opacity="0.65" />
<rect x="422.0" y="419.8" width="7" height="11.9" fill="#e07050" opacity="0.88" />
<circle cx="425.5" cy="416.6" r="3" fill="#e07050" opacity="1.0" />
<line x1="378.8" y1="420.9" x2="378.8" y2="442.5" stroke="#e07050" stroke-width="1.3" opacity="0.65" />
<rect x="375.3" y="424.2" width="7" height="11.9" fill="#e07050" opacity="0.88" />
<circle cx="378.8" cy="420.9" r="3" fill="#e07050" opacity="1.0" />
<line x1="335.9" y1="444.9" x2="335.9" y2="423.3" stroke="#5ad48a" stroke-width="1.3" opacity="0.65" />
<rect x="332.4" y="426.6" width="7" height="11.9" fill="#5ad48a" opacity="0.88" />
<circle cx="335.9" cy="444.9" r="3" fill="#5ad48a" opacity="1.0" />
<line x1="311.7" y1="474.8" x2="311.7" y2="453.2" stroke="#5ad48a" stroke-width="1.3" opacity="0.65" />
<rect x="308.2" y="456.5" width="7" height="11.9" fill="#5ad48a" opacity="0.88" />
<circle cx="311.7" cy="474.8" r="3" fill="#5ad48a" opacity="1.0" />
<line x1="293.2" y1="494.6" x2="293.2" y2="473.0" stroke="#5ad48a" stroke-width="1.3" opacity="0.65" />
<rect x="289.7" y="476.3" width="7" height="11.9" fill="#5ad48a" opacity="0.88" />
<circle cx="293.2" cy="494.6" r="3" fill="#5ad48a" opacity="1.0" />
<line x1="271.1" y1="497.9" x2="271.1" y2="519.5" stroke="#e07050" stroke-width="1.3" opacity="0.65" />
<rect x="267.6" y="501.2" width="7" height="11.9" fill="#e07050" opacity="0.88" />
<circle cx="271.1" cy="497.9" r="3" fill="#e07050" opacity="1.0" />
<line x1="232.6" y1="496.5" x2="232.6" y2="518.1" stroke="#e07050" stroke-width="1.3" opacity="0.65" />
<rect x="229.1" y="499.7" width="7" height="11.9" fill="#e07050" opacity="0.88" />
<circle cx="232.6" cy="496.5" r="3" fill="#e07050" opacity="1.0" />
<line x1="178.5" y1="514.1" x2="178.5" y2="478.1" stroke="#c45aad" stroke-width="1.3" opacity="0.65" />
<rect x="175.0" y="483.5" width="7" height="19.8" fill="#c45aad" opacity="0.88" filter="url(#glow3)"/>
<circle cx="178.5" cy="514.1" r="4.5" fill="#c45aad" opacity="1.0" filter="url(#glow3)"/>
</g>
<g fill="none" stroke="#8a6fd4" stroke-width="1.2" opacity="0.55">
<ellipse cx="512.2" cy="360.0" rx="15" ry="5"/>
<ellipse cx="476.2" cy="398.7" rx="15" ry="5"/>
<ellipse cx="452.0" cy="415.3" rx="15" ry="5"/>
</g>
<circle cx="378.8" cy="420.9" r="18" fill="url(#rg_pi)" opacity="0.3"/>
<circle cx="378.8" cy="420.9" r="7" fill="#5a9fd4" opacity="1.0" filter="url(#glow6)"/>
<circle cx="378.8" cy="420.9" r="5" fill="#5a9fd4" opacity="1" />
<ellipse cx="378.8" cy="420.9" rx="15" ry="5" fill="none" stroke="#5a9fd4" stroke-width="1" opacity="0.5"/>
<text x="378.8" y="407.9" text-anchor="middle" font-family="Inconsolata,monospace" font-size="10" fill="#5a9fd4" opacity="0.8">π₁</text>
<circle cx="271.1" cy="497.9" r="18" fill="url(#rg_pi)" opacity="0.3"/>
<circle cx="271.1" cy="497.9" r="7" fill="#5a9fd4" opacity="1.0" filter="url(#glow6)"/>
<circle cx="271.1" cy="497.9" r="5" fill="#5a9fd4" opacity="1" />
<ellipse cx="271.1" cy="497.9" rx="15" ry="5" fill="none" stroke="#5a9fd4" stroke-width="1" opacity="0.5"/>
<text x="271.1" y="484.9" text-anchor="middle" font-family="Inconsolata,monospace" font-size="10" fill="#5a9fd4" opacity="0.8">π₂</text>
<circle cx="152.9" cy="540.3" r="18" fill="url(#rg_pi)" opacity="0.3"/>
<circle cx="152.9" cy="540.3" r="7" fill="#5a9fd4" opacity="1.0" filter="url(#glow6)"/>
<circle cx="152.9" cy="540.3" r="5" fill="#5a9fd4" opacity="1" />
<ellipse cx="152.9" cy="540.3" rx="15" ry="5" fill="none" stroke="#5a9fd4" stroke-width="1" opacity="0.5"/>
<text x="152.9" y="527.3" text-anchor="middle" font-family="Inconsolata,monospace" font-size="10" fill="#5a9fd4" opacity="0.8">π₃</text>
<g opacity="0.18">
<circle cx="455.7" cy="395.1" r="1.2" fill="#4a7ab4"/>
<circle cx="475.4" cy="399.6" r="1.2" fill="#4a7ab4"/>
<circle cx="473.3" cy="366.2" r="1.2" fill="#4a7ab4"/>
<circle cx="580.4" cy="320.4" r="1.2" fill="#4a7ab4"/>
<circle cx="584.4" cy="317.1" r="1.2" fill="#4a7ab4"/>
<circle cx="457.3" cy="417.0" r="1.2" fill="#4a7ab4"/>
<circle cx="401.1" cy="414.7" r="1.2" fill="#4a7ab4"/>
<circle cx="418.2" cy="417.2" r="1.2" fill="#4a7ab4"/>
<circle cx="500.9" cy="413.4" r="1.2" fill="#4a7ab4"/>
<circle cx="429.9" cy="412.6" r="1.2" fill="#4a7ab4"/>
<circle cx="443.7" cy="404.2" r="1.2" fill="#4a7ab4"/>
<circle cx="586.8" cy="332.9" r="1.2" fill="#4a7ab4"/>
<circle cx="473.1" cy="401.0" r="1.2" fill="#4a7ab4"/>
<circle cx="555.5" cy="359.4" r="1.2" fill="#4a7ab4"/>
<circle cx="585.5" cy="354.1" r="1.2" fill="#4a7ab4"/>
<circle cx="380.3" cy="426.0" r="1.2" fill="#4a7ab4"/>
<circle cx="455.8" cy="418.5" r="1.2" fill="#4a7ab4"/>
<circle cx="485.1" cy="368.9" r="1.2" fill="#4a7ab4"/>
<circle cx="412.3" cy="406.0" r="1.2" fill="#4a7ab4"/>
<circle cx="413.1" cy="415.5" r="1.2" fill="#4a7ab4"/>
<circle cx="444.5" cy="401.1" r="1.2" fill="#4a7ab4"/>
<circle cx="487.7" cy="343.3" r="1.2" fill="#4a7ab4"/>
<circle cx="550.2" cy="338.7" r="1.2" fill="#4a7ab4"/>
<circle cx="439.0" cy="422.6" r="1.2" fill="#4a7ab4"/>
<circle cx="367.6" cy="418.9" r="1.2" fill="#4a7ab4"/>
<circle cx="618.2" cy="338.1" r="1.2" fill="#4a7ab4"/>
<circle cx="548.5" cy="361.6" r="1.2" fill="#4a7ab4"/>
<circle cx="529.2" cy="373.6" r="1.2" fill="#4a7ab4"/>
<circle cx="449.4" cy="377.1" r="1.2" fill="#4a7ab4"/>
<circle cx="555.6" cy="339.6" r="1.2" fill="#4a7ab4"/>
<circle cx="444.1" cy="411.1" r="1.2" fill="#4a7ab4"/>
<circle cx="569.0" cy="362.8" r="1.2" fill="#4a7ab4"/>
<circle cx="446.5" cy="418.5" r="1.2" fill="#4a7ab4"/>
<circle cx="434.0" cy="436.5" r="1.2" fill="#4a7ab4"/>
<circle cx="632.6" cy="322.3" r="1.2" fill="#4a7ab4"/>
<circle cx="472.2" cy="402.6" r="1.2" fill="#4a7ab4"/>
<circle cx="470.8" cy="369.2" r="1.2" fill="#4a7ab4"/>
<circle cx="535.3" cy="321.7" r="1.2" fill="#4a7ab4"/>
<circle cx="511.3" cy="378.9" r="1.2" fill="#4a7ab4"/>
<circle cx="538.2" cy="358.7" r="1.2" fill="#4a7ab4"/>
<circle cx="574.5" cy="365.7" r="1.2" fill="#4a7ab4"/>
<circle cx="395.5" cy="416.6" r="1.2" fill="#4a7ab4"/>
<circle cx="525.6" cy="315.9" r="1.2" fill="#4a7ab4"/>
<circle cx="520.5" cy="372.3" r="1.2" fill="#4a7ab4"/>
<circle cx="582.9" cy="335.5" r="1.2" fill="#4a7ab4"/>
<circle cx="476.2" cy="397.1" r="1.2" fill="#4a7ab4"/>
<circle cx="507.6" cy="343.9" r="1.2" fill="#4a7ab4"/>
<circle cx="568.9" cy="332.7" r="1.2" fill="#4a7ab4"/>
<circle cx="545.0" cy="372.6" r="1.2" fill="#4a7ab4"/>
<circle cx="438.3" cy="379.4" r="1.2" fill="#4a7ab4"/>
<circle cx="417.3" cy="413.2" r="1.2" fill="#4a7ab4"/>
<circle cx="495.4" cy="366.1" r="1.2" fill="#4a7ab4"/>
<circle cx="518.9" cy="395.3" r="1.2" fill="#4a7ab4"/>
<circle cx="462.4" cy="377.5" r="1.2" fill="#4a7ab4"/>
<circle cx="497.9" cy="408.4" r="1.2" fill="#4a7ab4"/>
<circle cx="381.9" cy="425.1" r="1.2" fill="#4a7ab4"/>
<circle cx="578.3" cy="352.0" r="1.2" fill="#4a7ab4"/>
<circle cx="615.5" cy="357.9" r="1.2" fill="#4a7ab4"/>
<circle cx="498.5" cy="405.8" r="1.2" fill="#4a7ab4"/>
<circle cx="396.6" cy="411.2" r="1.2" fill="#4a7ab4"/>
<circle cx="480.5" cy="386.7" r="1.2" fill="#4a7ab4"/>
<circle cx="573.7" cy="353.2" r="1.2" fill="#4a7ab4"/>
<circle cx="439.2" cy="418.8" r="1.2" fill="#4a7ab4"/>
<circle cx="557.4" cy="334.5" r="1.2" fill="#4a7ab4"/>
<circle cx="545.7" cy="350.1" r="1.2" fill="#4a7ab4"/>
<circle cx="443.8" cy="420.5" r="1.2" fill="#4a7ab4"/>
<circle cx="415.1" cy="430.7" r="1.2" fill="#4a7ab4"/>
<circle cx="449.2" cy="383.5" r="1.2" fill="#4a7ab4"/>
<circle cx="500.1" cy="423.2" r="1.2" fill="#4a7ab4"/>
<circle cx="579.2" cy="350.5" r="1.2" fill="#4a7ab4"/>
<circle cx="449.7" cy="397.7" r="1.2" fill="#4a7ab4"/>
<circle cx="529.0" cy="375.1" r="1.2" fill="#4a7ab4"/>
<circle cx="472.0" cy="389.1" r="1.2" fill="#4a7ab4"/>
<circle cx="451.7" cy="397.6" r="1.2" fill="#4a7ab4"/>
<circle cx="451.0" cy="382.9" r="1.2" fill="#4a7ab4"/>
<circle cx="406.3" cy="411.9" r="1.2" fill="#4a7ab4"/>
<circle cx="523.6" cy="345.3" r="1.2" fill="#4a7ab4"/>
<circle cx="464.4" cy="408.5" r="1.2" fill="#4a7ab4"/>
<circle cx="495.8" cy="334.3" r="1.2" fill="#4a7ab4"/>
<circle cx="485.2" cy="396.8" r="1.2" fill="#4a7ab4"/>
<circle cx="422.8" cy="429.5" r="1.2" fill="#4a7ab4"/>
<circle cx="590.6" cy="366.8" r="1.2" fill="#4a7ab4"/>
<circle cx="460.5" cy="412.2" r="1.2" fill="#4a7ab4"/>
<circle cx="405.7" cy="406.5" r="1.2" fill="#4a7ab4"/>
<circle cx="579.6" cy="347.2" r="1.2" fill="#4a7ab4"/>
<circle cx="438.0" cy="414.1" r="1.2" fill="#4a7ab4"/>
<circle cx="553.0" cy="344.1" r="1.2" fill="#4a7ab4"/>
<circle cx="458.3" cy="394.8" r="1.2" fill="#4a7ab4"/>
<circle cx="394.8" cy="390.9" r="1.2" fill="#4a7ab4"/>
<circle cx="383.7" cy="420.5" r="1.2" fill="#4a7ab4"/>
<circle cx="441.6" cy="408.3" r="1.2" fill="#4a7ab4"/>
<circle cx="499.3" cy="381.4" r="1.2" fill="#4a7ab4"/>
<circle cx="621.8" cy="358.0" r="1.2" fill="#4a7ab4"/>
<circle cx="474.7" cy="412.8" r="1.2" fill="#4a7ab4"/>
<circle cx="437.1" cy="421.7" r="1.2" fill="#4a7ab4"/>
<circle cx="447.2" cy="412.6" r="1.2" fill="#4a7ab4"/>
<circle cx="496.0" cy="370.8" r="1.2" fill="#4a7ab4"/>
<circle cx="399.3" cy="415.1" r="1.2" fill="#4a7ab4"/>
<circle cx="542.1" cy="361.4" r="1.2" fill="#4a7ab4"/>
<circle cx="503.4" cy="370.2" r="1.2" fill="#4a7ab4"/>
<circle cx="458.4" cy="380.4" r="1.2" fill="#4a7ab4"/>
<circle cx="421.4" cy="419.2" r="1.2" fill="#4a7ab4"/>
<circle cx="446.2" cy="402.5" r="1.2" fill="#4a7ab4"/>
<circle cx="469.4" cy="400.5" r="1.2" fill="#4a7ab4"/>
<circle cx="566.4" cy="316.6" r="1.2" fill="#4a7ab4"/>
<circle cx="496.7" cy="390.1" r="1.2" fill="#4a7ab4"/>
<circle cx="498.3" cy="359.6" r="1.2" fill="#4a7ab4"/>
<circle cx="461.4" cy="431.3" r="1.2" fill="#4a7ab4"/>
<circle cx="617.8" cy="338.4" r="1.2" fill="#4a7ab4"/>
<circle cx="544.3" cy="367.6" r="1.2" fill="#4a7ab4"/>
<circle cx="462.6" cy="434.9" r="1.2" fill="#4a7ab4"/>
<circle cx="415.7" cy="414.2" r="1.2" fill="#4a7ab4"/>
<circle cx="419.6" cy="414.0" r="1.2" fill="#4a7ab4"/>
<circle cx="469.4" cy="387.2" r="1.2" fill="#4a7ab4"/>
<circle cx="453.9" cy="408.0" r="1.2" fill="#4a7ab4"/>
<circle cx="588.1" cy="330.1" r="1.2" fill="#4a7ab4"/>
<circle cx="451.1" cy="398.2" r="1.2" fill="#4a7ab4"/>
<circle cx="432.6" cy="406.8" r="1.2" fill="#4a7ab4"/>
<circle cx="462.5" cy="376.6" r="1.2" fill="#4a7ab4"/>
<circle cx="469.5" cy="405.5" r="1.2" fill="#4a7ab4"/>
<circle cx="466.6" cy="360.8" r="1.2" fill="#4a7ab4"/>
<circle cx="430.5" cy="435.3" r="1.2" fill="#4a7ab4"/>
<circle cx="497.5" cy="399.3" r="1.2" fill="#4a7ab4"/>
<circle cx="461.5" cy="370.8" r="1.2" fill="#4a7ab4"/>
<circle cx="504.4" cy="347.3" r="1.2" fill="#4a7ab4"/>
<circle cx="441.8" cy="399.3" r="1.2" fill="#4a7ab4"/>
<circle cx="614.4" cy="353.1" r="1.2" fill="#4a7ab4"/>
<circle cx="600.5" cy="335.7" r="1.2" fill="#4a7ab4"/>
<circle cx="424.0" cy="415.3" r="1.2" fill="#4a7ab4"/>
<circle cx="514.0" cy="347.9" r="1.2" fill="#4a7ab4"/>
<circle cx="362.7" cy="420.5" r="1.2" fill="#4a7ab4"/>
<circle cx="489.5" cy="397.3" r="1.2" fill="#4a7ab4"/>
<circle cx="570.6" cy="342.8" r="1.2" fill="#4a7ab4"/>
<circle cx="448.4" cy="393.2" r="1.2" fill="#4a7ab4"/>
<circle cx="595.2" cy="319.9" r="1.2" fill="#4a7ab4"/>
<circle cx="470.6" cy="426.0" r="1.2" fill="#4a7ab4"/>
<circle cx="540.2" cy="339.5" r="1.2" fill="#4a7ab4"/>
<circle cx="427.9" cy="402.3" r="1.2" fill="#4a7ab4"/>
<circle cx="594.6" cy="337.3" r="1.2" fill="#4a7ab4"/>
<circle cx="618.1" cy="338.6" r="1.2" fill="#4a7ab4"/>
<circle cx="499.1" cy="364.2" r="1.2" fill="#4a7ab4"/>
<circle cx="417.2" cy="444.8" r="1.2" fill="#4a7ab4"/>
<circle cx="484.4" cy="410.7" r="1.2" fill="#4a7ab4"/>
<circle cx="456.5" cy="441.8" r="1.2" fill="#4a7ab4"/>
<circle cx="466.9" cy="403.1" r="1.2" fill="#4a7ab4"/>
<circle cx="580.4" cy="333.1" r="1.2" fill="#4a7ab4"/>
<circle cx="399.2" cy="413.9" r="1.2" fill="#4a7ab4"/>
<circle cx="499.5" cy="327.4" r="1.2" fill="#4a7ab4"/>
<circle cx="547.4" cy="369.7" r="1.2" fill="#4a7ab4"/>
<circle cx="424.6" cy="433.3" r="1.2" fill="#4a7ab4"/>
<circle cx="585.7" cy="354.1" r="1.2" fill="#4a7ab4"/>
<circle cx="450.4" cy="425.7" r="1.2" fill="#4a7ab4"/>
<circle cx="580.8" cy="312.3" r="1.2" fill="#4a7ab4"/>
<circle cx="475.6" cy="398.4" r="1.2" fill="#4a7ab4"/>
<circle cx="449.8" cy="400.6" r="1.2" fill="#4a7ab4"/>
<circle cx="541.0" cy="329.1" r="1.2" fill="#4a7ab4"/>
<circle cx="507.2" cy="403.1" r="1.2" fill="#4a7ab4"/>
<circle cx="498.0" cy="377.8" r="1.2" fill="#4a7ab4"/>
<circle cx="524.8" cy="335.9" r="1.2" fill="#4a7ab4"/>
<circle cx="546.1" cy="312.9" r="1.2" fill="#4a7ab4"/>
</g>
<circle cx="600.0" cy="330.0" r="24" fill="url(#rg_orig)" opacity="0.5"/>
<circle cx="600.0" cy="330.0" r="11" fill="#d4a85a" opacity="1.0" filter="url(#glow10)"/>
<circle cx="600.0" cy="330.0" r="8" fill="#d4a85a" opacity="1" />
<circle cx="152.9" cy="540.3" r="20" fill="url(#rg_s14)" opacity="0.5"/>
<circle cx="152.9" cy="540.3" r="9" fill="#c45aad" opacity="1.0" filter="url(#glow6)"/>
<circle cx="152.9" cy="540.3" r="7" fill="#c45aad" opacity="1" />
<text x="600.0" y="312.0" text-anchor="middle" font-family="Inconsolata,monospace" font-size="9" letter-spacing="2" fill="#d4a85a" opacity="0.85">A · ORIGIN</text>
<text x="152.9" y="524.3" text-anchor="middle" font-family="Inconsolata,monospace" font-size="9" letter-spacing="2" fill="#c45aad" opacity="0.85">B · S14</text>
<text x="550.6" y="405.4" font-family="Inconsolata,monospace" font-size="9" fill="#5a9fd4" opacity="0.55" letter-spacing="1">E · past vortex</text>
<text x="342.0" y="519.5" font-family="Inconsolata,monospace" font-size="9" fill="#c45aad" opacity="0.55" letter-spacing="1">B · future vortex</text>
<text x="22" y="28" font-family="Inconsolata,monospace" font-size="9" letter-spacing="4" fill="#d4a85a" opacity="0.7">PIERRE PHILOSOPHAL IA · v3.2 · a9521b66a1fb</text>
<text x="22" y="46" font-family="Inconsolata,monospace" font-size="9" letter-spacing="2" fill="#aaaaaa" opacity="0.4" font-style="italic">ISOMETRIC VIEW · φ SPIRAL · FIBO FAN A→B · VORTEX E/B · MOVEMENTS · π POINTS</text>
<circle cx="26" cy="644" r="4" fill="#d4a85a" opacity="0.85"/>
<text x="36" y="648" font-family="Inconsolata,monospace" font-size="8" letter-spacing="1" fill="#d4a85a" opacity="0.7">Origin → S14</text>
<circle cx="128" cy="644" r="4" fill="#5ad48a" opacity="0.85"/>
<text x="138" y="648" font-family="Inconsolata,monospace" font-size="8" letter-spacing="1" fill="#5ad48a" opacity="0.7">Rising</text>
<circle cx="194" cy="644" r="4" fill="#e07050" opacity="0.85"/>
<text x="204" y="648" font-family="Inconsolata,monospace" font-size="8" letter-spacing="1" fill="#e07050" opacity="0.7">Correction</text>
<circle cx="284" cy="644" r="4" fill="#5a9fd4" opacity="0.85"/>
<text x="294" y="648" font-family="Inconsolata,monospace" font-size="8" letter-spacing="1" fill="#5a9fd4" opacity="0.7">π point</text>
<circle cx="356" cy="644" r="4" fill="#c45aad" opacity="0.85"/>
<text x="366" y="648" font-family="Inconsolata,monospace" font-size="8" letter-spacing="1" fill="#c45aad" opacity="0.7">S14</text>
<circle cx="404" cy="644" r="4" fill="#8a6fd4" opacity="0.85"/>
<text x="414" y="648" font-family="Inconsolata,monospace" font-size="8" letter-spacing="1" fill="#8a6fd4" opacity="0.7">Aion</text>
</svg>